{"glyphs":{"0":{"ha":768,"x_min":31,"x_max":717,"o":"m 221 911 q 367 919 310 917 q 459 923 424 922 q 515 922 494 924 q 554 918 536 921 q 622 889 597 911 q 663 826 647 867 q 678 772 671 807 q 690 692 685 736 q 701 598 696 647 q 709 503 706 549 q 715 418 713 457 q 717 357 717 379 q 715 288 717 322 q 707 221 713 254 q 651 97 694 142 q 549 31 607 53 q 428 3 492 8 q 313 -1 364 -1 q 247 3 279 -1 q 185 19 214 7 q 134 53 157 32 q 94 107 111 74 q 63 200 75 147 q 44 310 51 253 q 33 422 36 367 q 31 521 31 476 q 38 680 31 613 q 65 794 44 747 q 123 869 86 840 q 221 911 160 897 m 307 650 q 310 579 307 626 q 319 474 314 532 q 331 355 324 417 q 346 242 338 293 q 353 192 350 219 q 363 142 356 165 q 385 104 371 119 q 426 89 400 89 q 476 111 460 89 q 500 165 493 133 q 507 229 507 196 q 507 286 507 263 q 505 410 507 338 q 497 558 503 482 q 484 703 492 633 q 464 821 476 774 q 431 862 456 856 q 376 868 407 868 q 331 842 346 868 q 311 781 317 817 q 306 709 306 746 q 307 650 307 672 z "},"1":{"ha":510,"x_min":38,"x_max":471,"o":"m 168 831 q 115 824 140 828 q 63 819 90 819 q 44 830 50 819 q 38 851 38 840 q 74 880 38 865 q 156 905 110 894 q 247 922 203 915 q 306 929 290 929 q 370 917 343 929 q 404 865 397 906 q 433 615 426 740 q 450 363 440 489 q 463 251 454 308 q 471 140 471 194 q 451 85 471 108 q 403 45 432 61 q 340 22 374 29 q 281 14 307 14 q 233 18 258 14 q 192 40 201 24 q 181 88 182 56 q 180 459 178 274 q 168 831 182 644 z "},"2":{"ha":788,"x_min":39,"x_max":747,"o":"m 257 460 q 241 435 253 444 q 213 422 229 426 q 181 415 197 417 q 153 413 165 413 q 94 424 117 413 q 60 456 72 436 q 43 503 47 476 q 39 563 39 531 q 72 710 39 640 q 159 833 104 781 q 285 917 214 886 q 435 947 357 947 q 526 938 476 947 q 619 906 576 928 q 690 849 661 885 q 718 760 718 813 q 696 666 718 717 q 640 560 674 615 q 565 448 606 506 q 488 335 525 390 q 424 226 451 279 q 388 128 396 174 q 403 125 396 125 q 469 129 436 125 q 536 133 501 133 q 591 134 556 133 q 661 131 626 135 q 722 114 696 126 q 747 74 747 101 q 715 35 747 44 q 641 24 683 25 q 557 26 599 22 q 496 31 515 31 q 370 17 432 31 q 246 4 308 4 q 176 28 194 4 q 157 101 157 53 q 182 194 157 140 q 245 310 207 249 q 328 436 283 371 q 410 563 372 501 q 474 677 449 624 q 499 768 499 731 q 484 830 499 804 q 429 856 469 856 q 335 824 372 856 q 274 744 297 792 q 242 643 251 697 q 232 544 232 589 q 239 501 232 525 q 257 460 246 476 z "},"3":{"ha":669,"x_min":44,"x_max":628,"o":"m 61 814 q 59 829 60 821 q 58 846 58 838 q 97 882 58 867 q 184 907 135 897 q 280 922 233 917 q 344 926 326 926 q 410 921 378 926 q 470 901 443 915 q 514 860 497 886 q 531 796 531 835 q 520 738 531 765 q 492 686 510 711 q 453 639 475 661 q 411 597 432 617 q 431 582 414 590 q 472 560 449 574 q 524 526 496 546 q 574 478 551 507 q 613 410 597 449 q 628 319 628 371 q 604 218 628 263 q 542 140 581 174 q 453 83 503 107 q 349 45 403 60 q 243 24 296 31 q 146 17 190 17 q 111 19 129 17 q 78 29 93 22 q 54 49 64 36 q 44 81 44 61 q 68 119 44 111 q 126 126 92 126 q 203 124 161 125 q 279 137 244 124 q 338 185 314 150 q 361 292 361 221 q 356 353 361 321 q 339 414 351 386 q 303 460 326 442 q 244 482 281 479 q 208 485 231 483 q 162 492 185 486 q 122 508 139 497 q 106 538 106 518 q 122 568 106 554 q 160 597 138 582 q 211 630 183 613 q 262 670 239 647 q 301 723 285 693 q 317 792 317 753 q 306 826 317 813 q 272 840 296 840 q 227 835 250 840 q 182 823 204 829 q 137 811 160 817 q 92 806 114 806 q 76 808 85 806 q 61 814 68 811 z "},"4":{"ha":788,"x_min":50,"x_max":750,"o":"m 510 285 q 403 258 456 272 q 294 243 350 243 q 197 253 242 243 q 119 287 151 263 q 68 350 86 311 q 50 447 50 389 q 60 554 50 494 q 84 675 69 614 q 117 794 99 736 q 150 897 135 851 q 174 937 158 922 q 210 959 190 951 q 252 969 229 967 q 299 972 275 972 q 342 969 315 972 q 392 958 368 967 q 434 935 417 950 q 451 899 451 921 q 439 799 451 857 q 412 679 426 742 q 385 555 397 617 q 374 443 374 493 q 378 410 374 422 q 399 397 383 397 q 458 405 426 397 q 518 418 490 413 q 539 503 532 458 q 550 595 546 549 q 558 688 554 642 q 568 778 561 735 q 581 808 571 796 q 604 826 590 819 q 635 835 618 832 q 668 838 651 838 q 697 835 682 838 q 723 828 711 833 q 742 813 735 824 q 750 786 750 803 q 745 608 750 699 q 734 424 740 517 q 723 238 728 332 q 718 51 718 144 q 706 22 718 33 q 676 2 693 10 q 640 -8 658 -6 q 607 -11 621 -11 q 546 6 564 -11 q 515 59 522 25 q 508 132 508 93 q 510 211 508 171 q 510 285 513 251 z "},"5":{"ha":718,"x_min":56,"x_max":675,"o":"m 507 932 q 566 914 554 924 q 578 893 578 904 q 560 864 578 875 q 514 848 542 853 q 452 842 486 843 q 385 842 418 840 q 326 844 353 843 q 285 846 299 846 q 277 803 281 833 q 272 738 274 772 q 268 672 269 704 q 267 625 267 640 l 268 590 q 361 606 314 597 q 456 615 408 615 q 558 599 517 615 q 626 551 600 582 q 664 474 653 519 q 675 372 675 429 q 663 224 675 294 q 619 99 651 153 q 529 13 586 44 q 383 -19 472 -19 q 340 -20 369 -19 q 275 -20 311 -21 q 200 -17 239 -19 q 130 -6 161 -14 q 78 14 99 1 q 58 46 58 26 q 60 68 58 56 q 67 92 63 81 q 81 112 72 104 q 103 119 90 119 q 163 115 132 119 q 224 110 193 110 q 334 117 292 110 q 400 148 376 125 q 431 214 424 171 q 439 328 439 257 q 438 386 439 353 q 427 449 436 419 q 399 500 418 479 q 344 521 379 521 q 301 509 317 521 q 270 483 285 497 q 238 458 256 469 q 190 446 221 446 q 144 445 168 446 q 101 450 121 444 q 68 470 81 456 q 56 514 56 485 q 61 597 56 554 q 75 682 67 639 q 92 767 83 725 q 106 850 100 810 q 125 899 110 881 q 172 925 140 918 q 249 933 210 933 l 507 932 z "},"6":{"ha":806,"x_min":51,"x_max":757,"o":"m 382 565 q 502 546 436 556 q 624 513 568 536 q 719 446 681 489 q 757 328 757 403 q 718 185 757 249 q 618 77 679 122 q 483 8 557 32 q 339 -15 408 -15 q 126 50 201 -15 q 51 260 51 115 q 66 367 51 300 q 105 510 81 433 q 163 666 129 588 q 236 808 197 744 q 317 911 275 871 q 403 951 360 951 q 439 950 415 951 q 485 944 463 949 q 526 928 508 939 q 543 897 543 917 q 534 872 543 883 q 518 850 525 860 q 468 781 488 813 q 434 716 449 749 q 408 647 419 683 q 382 565 396 611 m 443 89 q 509 111 481 89 q 557 165 538 133 q 586 235 576 197 q 596 304 596 272 q 575 380 596 350 q 522 428 554 410 q 450 453 489 446 q 374 460 411 460 q 343 432 357 460 q 322 363 329 404 q 317 274 315 322 q 333 185 319 226 q 372 117 346 144 q 443 89 399 89 z "},"7":{"ha":588,"x_min":24,"x_max":551,"o":"m 374 850 q 228 837 303 846 q 83 828 154 828 q 61 829 72 828 q 39 835 50 831 l 24 854 q 36 878 26 869 q 66 883 38 879 q 137 892 94 888 q 229 902 179 897 q 324 910 279 907 q 401 917 368 914 q 443 919 433 919 q 478 915 460 919 q 514 900 497 910 q 541 876 531 890 q 551 842 551 861 q 541 745 551 801 q 513 624 531 689 q 474 490 496 560 q 431 353 453 421 q 389 223 410 285 q 354 113 368 161 q 324 57 344 79 q 275 21 303 35 q 215 1 247 7 q 151 -6 183 -6 q 125 -4 140 -6 q 96 2 110 -3 q 72 16 82 7 q 63 40 63 25 q 83 111 63 57 q 135 241 103 165 q 204 405 167 317 q 276 578 242 493 q 338 735 311 663 q 374 850 364 807 z "},"8":{"ha":711,"x_min":36,"x_max":688,"o":"m 231 371 q 157 410 192 388 q 95 460 122 432 q 52 524 68 489 q 36 601 36 558 q 81 747 36 685 q 193 851 125 810 q 344 914 261 893 q 504 935 426 935 q 565 933 533 935 q 624 923 597 932 q 669 894 651 914 q 688 839 688 875 q 657 753 688 804 q 585 649 626 703 q 501 547 543 596 q 435 469 458 499 q 503 419 464 446 q 580 363 543 393 q 642 297 617 332 q 667 221 667 261 q 640 126 667 169 q 570 49 613 82 q 476 -1 528 17 q 372 -19 424 -19 q 289 -10 335 -19 q 203 17 243 -1 q 137 67 164 36 q 110 140 110 97 q 122 199 110 167 q 153 262 135 231 q 193 322 172 293 q 231 371 214 350 m 329 315 q 283 244 301 283 q 264 164 264 204 q 297 81 264 111 q 388 50 331 50 q 458 77 435 50 q 481 144 481 104 q 465 195 481 169 q 426 244 449 221 q 376 285 403 267 q 329 315 350 303 m 372 536 q 397 565 381 546 q 434 607 414 583 q 475 656 454 631 q 513 705 496 682 q 542 747 531 728 q 553 776 553 767 q 536 812 553 800 q 496 824 519 824 q 424 805 456 824 q 369 757 392 786 q 333 692 346 728 q 321 624 321 657 q 358 525 321 568 l 372 536 z "},"9":{"ha":724,"x_min":22,"x_max":689,"o":"m 393 439 q 338 431 365 436 q 283 425 311 425 q 190 440 238 425 q 104 483 142 456 q 44 552 67 511 q 28 646 22 593 q 141 874 44 797 q 385 950 238 950 q 547 915 485 950 q 642 821 610 881 q 681 683 674 761 q 679 518 689 606 q 660 417 674 474 q 624 302 647 361 q 569 188 601 243 q 498 88 538 132 q 409 17 458 44 q 303 -10 360 -10 q 278 -8 293 -10 q 248 -3 263 -7 q 223 10 233 1 q 214 32 213 18 q 220 44 215 38 q 229 56 225 51 q 336 223 290 132 q 393 410 382 314 q 394 425 394 418 q 393 439 393 432 m 396 514 q 406 533 403 522 q 410 554 408 543 q 414 605 411 572 q 417 675 417 638 q 413 751 417 713 q 401 820 410 789 q 374 872 392 851 q 331 892 357 892 q 283 872 303 892 q 249 824 263 853 q 227 766 235 796 q 218 715 219 736 q 217 648 215 685 q 229 578 218 611 q 263 524 240 546 q 324 503 286 503 q 360 506 339 503 q 396 514 381 510 z "},"\u0000":{"ha":0,"x_min":0,"x_max":0,"o":""},"\r":{"ha":406,"x_min":0,"x_max":0,"o":""}," ":{"ha":406,"x_min":0,"x_max":0,"o":""},"¤":{"ha":597,"x_min":36,"x_max":575,"o":"m 122 601 q 92 633 107 617 q 63 664 78 649 q 51 703 36 690 q 100 717 65 717 q 151 696 131 717 q 194 656 172 675 q 252 678 222 668 q 312 690 282 689 q 372 682 342 692 q 432 644 403 672 q 472 679 454 664 q 515 701 490 694 q 538 701 525 703 q 559 693 550 699 q 572 679 568 688 q 568 658 575 671 q 536 615 554 638 q 508 582 518 593 q 528 514 521 549 q 536 443 536 479 q 515 345 536 390 q 456 264 494 300 q 467 248 460 257 q 483 228 475 239 q 495 208 490 218 q 500 189 500 197 q 492 173 500 181 q 472 160 483 165 q 447 151 460 154 q 426 147 435 147 q 406 153 415 147 q 389 169 397 160 q 374 189 381 179 q 363 207 367 199 q 313 199 338 204 q 263 194 289 194 q 213 200 238 194 q 164 208 189 206 q 138 177 153 196 q 104 158 124 158 q 75 203 50 158 q 91 228 82 215 q 106 254 100 240 q 60 344 72 300 q 51 430 47 388 q 74 515 56 472 q 122 601 93 557 m 421 492 q 399 565 421 536 q 329 593 378 593 q 276 574 296 593 q 244 528 256 556 q 230 470 233 501 q 226 414 226 439 q 229 360 226 385 q 242 319 232 336 q 272 291 253 301 q 325 281 292 281 q 375 298 356 281 q 405 340 394 315 q 419 394 415 365 q 422 447 422 424 l 421 492 z "},"?":{"ha":651,"x_min":40,"x_max":617,"o":"m 307 261 q 269 262 290 261 q 230 268 249 263 q 198 284 211 274 q 185 314 185 294 q 220 464 185 392 q 298 605 256 536 q 376 738 340 674 q 411 865 411 803 q 408 903 411 883 q 397 940 406 924 q 373 968 389 957 q 329 979 357 979 q 270 958 294 979 q 230 908 246 938 q 207 845 214 878 q 200 789 200 813 q 206 746 200 767 q 211 703 211 725 q 200 678 211 689 q 172 661 189 668 q 138 651 156 654 q 106 647 119 647 q 70 662 83 647 q 51 697 57 676 q 42 739 44 717 q 40 776 40 761 q 74 896 40 844 q 163 983 108 947 q 287 1036 218 1018 q 425 1054 356 1054 q 568 1010 519 1054 q 617 883 617 967 q 589 777 617 831 q 528 664 561 724 q 468 536 496 604 q 440 388 440 468 q 436 327 440 351 q 418 288 432 303 q 378 267 404 274 q 307 261 351 261 m 306 196 q 385 178 360 196 q 411 110 411 160 q 403 46 411 68 q 376 13 394 24 q 326 1 357 3 q 251 -1 296 -1 q 190 18 206 -1 q 175 74 175 38 q 178 135 175 111 q 196 172 182 158 q 235 190 210 185 q 306 196 261 196 z "},"_":{"ha":546,"x_min":39,"x_max":490,"o":"m 297 29 q 208 24 253 29 q 117 18 163 18 q 87 19 101 18 q 62 24 72 19 q 45 40 51 29 q 39 71 39 51 q 52 111 39 97 q 85 131 65 125 q 129 138 106 138 q 174 138 153 138 q 284 147 229 138 q 397 157 339 157 q 429 156 413 157 q 459 151 446 156 q 481 134 472 146 q 490 101 490 122 q 469 51 490 67 q 417 30 447 35 q 353 27 386 25 q 297 29 319 29 z "},"Z":{"ha":761,"x_min":44,"x_max":722,"o":"m 453 914 q 440 928 446 925 q 425 932 433 932 q 293 922 358 932 q 161 913 228 913 q 131 922 146 913 q 115 951 115 932 q 141 988 115 974 q 201 1011 167 1003 q 269 1023 236 1019 q 317 1028 301 1026 q 424 1040 369 1033 q 532 1047 479 1047 q 592 1044 558 1047 q 654 1032 625 1042 q 703 1002 683 1022 q 722 947 722 982 q 704 868 722 918 q 662 765 686 818 q 613 663 638 713 q 572 586 588 614 q 463 360 511 474 q 381 124 415 246 l 410 124 q 517 132 464 124 q 624 140 571 140 q 651 138 638 140 q 676 130 665 136 q 694 113 688 124 q 701 88 701 103 q 693 51 701 64 q 661 35 685 39 q 558 19 618 26 q 433 5 497 11 q 309 -6 369 -1 q 207 -10 249 -10 q 158 -6 186 -10 q 106 7 131 -3 q 63 33 81 17 q 44 76 44 50 q 75 201 44 128 q 151 358 106 275 q 249 528 196 442 q 347 690 301 614 q 422 825 392 765 q 453 914 453 885 z "},"Y":{"ha":826,"x_min":31,"x_max":797,"o":"m 254 447 q 219 508 240 469 q 172 594 197 547 q 122 693 147 642 q 76 792 97 744 q 43 878 56 839 q 31 942 31 918 q 42 965 31 954 q 67 983 53 975 q 98 997 82 992 q 125 1001 114 1001 q 147 994 138 1001 q 161 975 156 986 q 200 884 183 929 q 233 794 217 839 q 271 702 250 749 q 325 606 292 656 q 427 808 378 706 q 536 1006 476 910 q 573 1033 551 1032 q 621 1035 594 1035 q 664 1031 635 1035 q 723 1017 693 1026 q 775 995 753 1008 q 797 964 797 982 q 794 947 797 956 q 786 929 790 939 q 710 792 750 858 q 628 658 669 725 q 549 522 588 590 q 479 379 511 453 q 447 292 463 340 q 414 197 431 244 q 381 103 397 149 q 346 25 364 58 q 315 2 333 4 q 276 0 297 0 q 237 1 261 0 q 190 6 213 1 q 149 22 167 11 q 132 53 132 32 q 140 96 132 65 q 158 165 147 126 q 183 248 169 204 q 211 331 197 292 q 236 401 225 371 q 254 447 247 432 z "},"X":{"ha":743,"x_min":43,"x_max":701,"o":"m 426 594 q 456 542 433 583 q 510 444 479 500 q 574 324 540 388 q 635 208 607 261 q 683 119 664 156 q 701 82 701 83 q 681 44 701 61 q 632 17 660 28 q 575 0 604 6 q 529 -6 546 -6 q 485 13 507 -6 q 441 62 463 32 q 399 128 419 92 q 360 201 378 165 q 327 267 342 236 q 303 314 313 297 q 265 235 285 286 q 222 131 246 183 q 167 41 197 79 q 97 3 136 3 q 64 8 85 3 q 43 28 43 13 q 55 66 43 33 q 85 145 67 99 q 126 245 104 192 q 167 346 147 299 q 203 428 188 393 q 222 471 218 463 q 195 532 213 493 q 158 618 178 571 q 119 717 139 665 q 84 815 100 768 q 58 900 68 863 q 47 958 47 938 q 60 987 47 975 q 92 1005 74 999 q 129 1014 110 1011 q 163 1017 149 1017 q 208 1013 185 1017 q 253 974 232 1008 q 294 897 275 940 q 328 811 313 854 q 357 746 344 768 q 426 873 389 810 q 500 997 464 936 q 537 1032 515 1019 q 583 1044 558 1044 q 641 1026 632 1044 q 632 971 650 1007 q 529 783 581 875 q 426 594 478 690 z "},"W":{"ha":1175,"x_min":40,"x_max":1129,"o":"m 572 331 q 530 199 547 263 q 483 88 513 136 q 404 12 454 40 q 265 -17 354 -17 q 171 2 207 -17 q 113 53 135 21 q 74 160 89 88 q 50 324 58 232 q 41 516 42 415 q 47 709 40 617 q 65 876 53 801 q 97 988 78 950 q 137 1029 111 1021 q 207 1038 163 1038 q 244 1035 224 1038 q 282 1026 264 1033 q 313 1007 300 1019 q 325 974 325 994 q 320 907 325 940 q 311 840 315 874 q 301 717 304 786 q 299 578 299 649 q 304 441 300 508 q 316 320 308 374 q 334 233 324 267 q 358 198 344 200 q 387 230 371 196 q 421 346 403 264 q 443 440 431 390 q 468 538 456 490 q 493 626 481 585 q 515 696 506 668 q 560 743 531 735 q 626 751 589 751 q 665 751 646 751 q 706 749 685 751 q 747 733 733 746 q 763 693 760 721 q 765 635 764 675 q 768 543 765 594 q 777 435 771 492 q 799 326 783 378 q 846 233 819 256 q 897 221 872 211 q 939 265 921 231 q 961 344 957 300 q 967 512 968 422 q 965 689 967 601 q 964 856 964 776 q 974 990 964 935 q 1010 1029 981 1018 q 1067 1040 1040 1040 q 1117 1029 1104 1040 q 1129 982 1129 1018 q 1125 680 1129 831 q 1118 378 1121 529 q 1109 261 1117 321 q 1078 149 1101 201 q 1013 56 1051 92 q 931 3 975 19 q 840 -10 888 -14 q 751 15 793 -7 q 673 78 708 38 q 617 176 638 118 q 590 262 600 221 q 572 331 581 303 z "},"V":{"ha":692,"x_min":38,"x_max":671,"o":"m 388 275 q 408 342 394 290 q 439 463 422 393 q 473 614 456 533 q 507 768 490 694 q 536 900 524 842 q 556 985 549 958 q 580 1028 563 1017 q 629 1039 597 1039 q 666 1030 661 1039 q 668 997 671 1021 q 622 781 651 897 q 563 544 593 664 q 508 307 532 424 q 476 90 483 190 q 460 46 475 64 q 422 17 444 28 q 374 3 400 7 q 326 -1 349 -1 q 230 49 272 -1 q 156 177 188 99 q 101 352 124 256 q 64 540 78 449 q 44 707 50 631 q 38 822 38 783 q 38 901 38 861 q 48 972 38 940 q 83 1022 58 1003 q 160 1042 108 1042 q 235 1030 213 1042 q 262 996 257 1018 q 263 944 267 974 q 258 876 258 914 q 263 797 258 847 q 275 688 267 747 q 294 565 283 629 q 319 444 306 501 q 347 342 332 388 q 378 274 363 296 l 388 275 z "},"U":{"ha":757,"x_min":32,"x_max":711,"o":"m 710 625 q 708 531 710 589 q 701 406 707 472 q 685 272 696 339 q 653 150 674 204 q 607 75 636 106 q 541 26 578 44 q 462 -1 504 7 q 378 -10 419 -10 q 197 33 265 -10 q 92 144 129 75 q 44 302 56 214 q 32 481 32 390 q 35 592 32 528 q 43 722 38 656 q 58 851 49 789 q 81 960 68 914 q 124 1021 96 1008 q 200 1033 151 1033 q 238 1031 215 1033 q 280 1020 260 1028 q 315 1000 300 1013 q 329 967 329 988 q 322 813 329 899 q 307 635 314 726 q 297 456 300 544 q 306 292 294 367 q 317 221 310 254 q 338 162 324 188 q 376 122 351 136 q 442 107 401 107 q 492 117 472 107 q 524 146 511 128 q 542 187 536 164 q 553 233 549 210 q 564 338 560 276 q 569 470 568 400 q 571 614 571 540 q 570 753 571 688 q 568 873 569 819 q 567 957 567 926 q 567 992 567 975 q 572 1021 567 1008 q 588 1041 576 1033 q 622 1049 600 1049 l 661 1049 q 685 1040 674 1049 q 700 1019 696 1032 q 709 937 707 990 q 711 824 711 883 q 710 710 711 764 q 710 625 710 656 z "},"S":{"ha":619,"x_min":42,"x_max":581,"o":"m 261 -8 q 200 -3 238 -8 q 127 15 163 3 q 67 48 92 28 q 42 99 42 68 q 53 138 42 119 q 88 157 64 157 q 142 142 114 157 q 203 126 171 126 q 295 154 264 126 q 333 226 326 182 q 324 323 340 269 q 272 426 307 376 q 201 521 240 471 q 127 621 163 571 q 68 721 92 671 q 44 815 44 771 q 64 915 44 872 q 118 988 83 958 q 199 1032 153 1017 q 299 1047 244 1047 q 364 1038 324 1047 q 442 1013 404 1029 q 506 971 479 996 q 533 913 533 946 q 512 877 533 890 q 471 864 490 864 q 435 881 451 864 q 400 917 418 897 q 360 953 382 936 q 307 969 338 969 q 281 957 292 969 q 263 926 269 944 q 252 890 256 908 q 249 860 249 872 q 273 769 249 813 q 335 682 297 726 q 415 588 372 638 q 494 481 457 539 q 556 352 532 422 q 581 194 581 282 q 549 92 581 132 q 469 31 517 53 q 365 0 421 8 q 261 -8 308 -8 z "},"R":{"ha":771,"x_min":47,"x_max":728,"o":"m 353 876 q 441 946 390 918 q 549 974 492 974 q 631 954 597 974 q 687 903 665 935 q 718 831 708 871 q 728 747 728 790 q 713 625 728 675 q 670 536 699 575 q 600 465 642 497 q 503 397 558 433 q 600 249 547 319 q 711 113 653 179 q 669 75 692 86 q 613 64 646 64 q 566 79 590 64 q 517 119 542 94 q 469 175 493 144 q 425 236 446 206 q 387 294 404 267 q 358 339 369 321 q 374 206 364 274 q 385 74 385 138 q 363 28 385 47 q 313 -1 342 10 q 251 -18 283 -12 q 199 -24 219 -24 q 163 -22 182 -24 q 128 -15 144 -21 q 99 2 111 -10 q 82 33 86 14 q 54 259 61 144 q 47 486 47 374 q 48 559 47 510 q 52 667 49 608 q 62 790 56 726 q 78 909 68 854 q 101 1002 88 964 q 136 1050 115 1040 q 181 1065 156 1060 q 228 1069 206 1069 q 269 1066 246 1069 q 312 1054 292 1063 q 346 1031 332 1046 q 360 994 360 1017 q 355 949 360 971 q 350 904 350 928 q 351 890 350 897 q 353 876 351 883 m 350 465 q 544 558 485 482 q 603 769 603 633 q 599 808 603 783 q 588 858 596 833 q 566 901 579 883 q 535 919 553 919 q 464 883 499 919 q 402 797 429 847 q 358 695 375 747 q 342 611 342 643 q 350 465 342 538 z "},"Q":{"ha":968,"x_min":49,"x_max":932,"o":"m 735 136 q 785 49 758 90 q 842 -31 811 8 q 807 -67 828 -56 q 761 -78 786 -78 q 733 -59 750 -78 q 698 -16 715 -40 q 666 33 681 8 q 646 68 651 57 q 521 24 581 42 q 390 6 461 6 q 239 47 303 6 q 133 156 175 89 q 69 304 90 222 q 49 467 49 386 q 75 680 49 576 q 156 863 101 783 q 297 991 211 943 q 500 1039 382 1039 q 548 1035 528 1039 q 585 1024 568 1031 q 621 1008 603 1017 q 663 990 639 1000 l 690 982 q 793 929 749 964 q 869 847 838 894 q 916 743 900 800 q 932 624 932 686 q 917 492 932 560 q 874 361 901 425 q 812 240 847 297 q 735 136 776 182 m 699 228 q 753 286 728 246 q 795 374 778 326 q 822 471 813 422 q 832 554 832 519 q 816 683 832 617 q 768 804 800 749 q 687 895 736 860 q 569 931 638 931 q 456 891 499 931 q 389 793 413 851 q 357 666 365 735 q 349 539 349 597 q 351 470 349 513 q 362 378 354 428 q 381 279 369 329 q 412 189 393 229 q 456 123 431 149 q 514 97 481 97 q 567 111 542 97 q 608 149 593 125 q 587 199 603 165 q 554 271 571 233 q 525 340 538 308 q 513 383 513 372 q 520 401 513 393 q 539 416 528 410 q 562 426 550 422 q 582 429 574 429 q 603 415 593 429 q 622 378 613 400 q 640 331 631 357 q 658 282 649 304 q 677 244 667 260 q 699 228 688 229 z "},"P":{"ha":785,"x_min":40,"x_max":746,"o":"m 317 332 q 315 190 313 254 q 318 67 318 126 q 300 30 318 46 q 257 4 282 14 q 205 -10 232 -6 q 161 -15 178 -15 q 82 6 107 -15 q 49 60 57 26 q 42 135 40 93 q 44 219 44 178 q 44 596 44 403 q 57 971 44 789 q 97 1029 58 1013 q 157 1039 117 1036 q 242 1043 197 1042 q 328 1044 286 1044 q 390 1043 369 1043 q 535 1022 469 1043 q 647 958 600 1000 q 719 851 693 915 q 746 703 746 788 q 731 610 746 656 q 665 470 701 522 q 580 389 629 418 q 467 349 531 360 q 317 332 403 338 m 311 511 q 319 460 311 475 q 365 444 326 444 q 442 475 414 444 q 486 549 471 506 q 506 642 501 593 q 510 726 510 690 q 506 790 510 751 q 492 865 503 828 q 461 927 482 901 q 407 953 440 953 q 378 952 394 953 q 347 949 363 951 q 322 938 332 946 q 311 915 311 929 l 311 511 z "},"z":{"ha":725,"x_min":43,"x_max":690,"o":"m 368 88 q 480 90 425 88 q 592 92 535 92 q 640 82 619 92 q 663 40 660 72 q 644 9 664 21 q 590 -10 624 -3 q 517 -18 557 -17 q 438 -19 476 -19 q 367 -18 399 -19 q 319 -17 335 -17 q 250 -17 294 -17 q 161 -11 206 -18 q 83 13 117 -4 q 46 68 49 31 q 61 164 43 103 q 110 300 79 225 q 179 456 140 375 q 256 607 218 536 q 326 733 293 678 q 378 811 358 788 q 260 806 318 811 q 142 800 201 800 q 97 810 121 800 q 69 844 72 819 q 79 881 67 869 q 110 894 92 892 q 149 894 128 896 q 186 892 169 892 q 395 899 290 892 q 607 906 500 906 q 633 904 619 906 q 658 898 646 903 q 679 884 671 893 q 689 860 688 875 q 682 822 690 844 q 667 788 674 799 q 580 631 626 721 q 491 444 533 540 q 415 255 449 349 q 368 88 382 161 z "},"y":{"ha":710,"x_min":26,"x_max":690,"o":"m 249 342 q 178 435 217 375 q 106 563 140 494 q 49 697 72 631 q 26 811 26 764 q 37 835 26 825 q 62 851 47 844 q 92 860 76 857 q 118 863 107 863 q 150 838 140 863 l 156 819 q 183 717 169 761 q 211 635 196 674 q 247 556 226 596 q 294 463 267 515 q 369 633 333 547 q 446 801 404 718 q 483 853 463 833 q 542 872 503 872 q 581 869 556 872 q 630 858 606 865 q 672 837 654 850 q 690 806 690 824 q 684 776 690 790 q 671 747 678 761 q 543 448 608 596 q 415 149 478 300 q 369 27 389 86 q 325 -94 349 -32 q 257 -140 308 -140 q 223 -139 244 -140 q 180 -132 201 -137 q 143 -117 158 -126 q 128 -92 128 -107 q 135 -40 128 -74 q 152 37 142 -6 q 176 125 163 79 q 202 213 189 171 q 228 290 215 256 q 249 342 240 324 z "},"!":{"ha":329,"x_min":40,"x_max":278,"o":"m 267 308 q 247 274 263 285 q 208 258 231 263 q 162 254 186 254 q 118 254 138 254 q 65 271 81 254 q 50 324 50 288 q 51 572 50 446 q 53 819 53 697 q 51 863 53 843 q 50 906 50 883 q 63 940 50 926 q 94 963 75 954 q 133 976 113 972 q 171 981 154 981 q 233 938 219 981 q 253 855 244 906 q 267 745 261 804 q 275 622 272 686 q 278 499 278 558 q 275 390 278 440 q 267 308 272 340 m 114 -4 q 54 11 68 -4 q 40 74 40 26 q 52 142 40 117 q 85 181 64 168 q 138 197 107 193 q 208 200 169 200 q 235 191 225 200 q 251 168 246 182 q 258 138 256 154 q 260 110 260 122 q 249 51 260 74 q 218 17 238 29 q 172 0 199 4 q 114 -4 146 -4 z "},"\"":{"ha":557,"x_min":103,"x_max":451,"o":"m 114 799 q 106 846 110 822 q 103 894 103 869 q 118 953 103 932 q 174 975 133 975 q 226 963 199 975 q 253 919 253 950 q 248 852 253 894 q 231 769 243 810 q 195 700 218 729 q 135 671 172 671 q 109 683 115 671 q 103 711 103 696 q 107 755 103 733 q 114 799 111 776 m 313 799 q 305 846 308 822 q 301 894 301 869 q 317 953 301 932 q 372 975 332 975 q 424 963 397 975 q 451 919 451 950 q 447 852 451 894 q 429 769 442 810 q 394 700 417 729 q 333 671 371 671 q 308 683 314 671 q 301 711 301 696 q 306 755 301 733 q 313 799 310 776 z "},"#":{"ha":953,"x_min":51,"x_max":907,"o":"m 463 626 q 497 622 481 621 q 528 629 513 624 q 550 675 543 650 q 561 726 557 700 q 569 776 565 751 q 586 819 574 800 q 622 849 599 838 q 685 861 644 861 q 707 860 694 861 q 731 856 719 860 q 749 845 742 853 q 757 824 757 838 q 744 735 757 782 q 722 647 731 688 q 742 640 732 640 q 799 644 769 640 q 856 649 828 649 q 892 636 876 649 q 907 603 907 624 q 882 560 907 574 q 822 541 857 546 q 752 536 788 536 q 694 535 717 536 q 678 476 683 507 q 667 417 672 446 q 701 412 685 411 q 735 415 718 413 q 767 421 751 418 q 799 424 783 424 q 826 409 819 424 q 833 376 833 394 q 812 328 833 343 q 760 310 790 314 q 697 308 729 306 q 643 310 665 310 q 620 215 625 265 q 603 123 615 165 q 561 53 590 81 q 467 25 532 25 q 428 31 447 25 q 408 61 408 36 q 423 177 408 114 q 449 293 438 240 q 427 300 439 300 q 406 297 415 300 q 383 217 385 257 q 372 144 381 176 q 338 93 364 113 q 243 74 311 74 q 206 82 222 74 q 189 114 189 90 q 197 197 189 153 q 213 278 204 240 q 160 283 190 285 q 107 281 131 281 q 67 288 82 281 q 51 322 51 294 q 72 371 51 356 q 119 391 92 386 q 178 395 147 396 q 232 394 210 394 q 248 449 244 421 q 258 504 251 476 q 236 510 249 510 q 172 500 204 510 q 107 490 140 490 q 69 529 69 490 q 96 565 69 551 q 157 587 122 579 q 227 598 192 594 q 282 604 263 601 q 311 725 292 664 q 344 846 331 786 q 383 895 354 885 q 447 906 411 906 q 472 906 460 906 q 494 903 483 906 q 510 892 504 900 q 517 868 517 885 q 509 808 517 839 q 492 747 501 778 q 474 686 483 717 q 463 626 465 656 m 468 394 q 481 458 475 425 q 497 539 488 490 q 473 537 483 536 q 450 535 463 538 l 424 396 l 468 394 z "},"$":{"ha":544,"x_min":36,"x_max":499,"o":"m 361 688 q 316 740 342 715 q 267 765 290 765 q 246 756 254 765 q 238 733 238 746 q 257 663 238 699 q 306 589 276 626 q 368 513 335 551 q 431 438 401 475 q 479 363 460 400 q 499 290 499 325 q 485 235 499 261 q 449 188 471 210 q 401 150 428 167 q 351 124 375 133 q 353 85 351 104 q 354 46 354 65 q 340 -8 354 4 q 285 -19 325 -19 q 258 -8 265 -19 q 249 19 250 3 q 249 52 247 35 q 253 83 251 69 q 219 79 236 81 q 185 78 201 78 q 143 81 168 78 q 94 93 118 85 q 53 116 69 101 q 36 154 36 131 q 47 185 36 169 q 78 200 58 200 q 150 188 114 200 q 222 175 186 175 q 278 204 258 175 q 299 268 299 233 q 282 321 299 294 q 241 376 265 347 q 188 435 217 404 q 135 502 160 467 q 94 577 111 538 q 78 664 78 617 q 88 721 78 697 q 115 763 97 744 q 157 793 133 781 q 208 818 181 806 q 217 862 219 839 q 214 906 214 885 q 227 945 214 933 q 267 957 240 957 q 306 950 289 957 q 322 915 322 943 q 318 869 322 893 q 308 824 314 846 q 429 790 388 829 q 471 689 471 751 q 464 672 471 679 q 447 658 457 664 q 426 649 436 653 q 407 646 415 646 q 379 660 388 646 q 361 688 371 675 z "},"%":{"ha":874,"x_min":69,"x_max":786,"o":"m 338 -1 q 308 0 326 -1 q 272 6 289 1 q 242 18 254 10 q 229 40 229 26 q 251 110 229 49 q 305 261 272 172 q 377 454 338 350 q 453 651 417 558 q 517 813 489 743 q 554 901 544 882 q 584 942 568 928 q 631 957 600 957 q 660 956 642 957 q 698 949 679 954 q 730 935 717 944 q 743 913 743 926 q 735 885 743 904 q 719 844 728 867 q 700 802 710 822 q 686 772 690 782 q 612 604 647 682 q 544 450 576 526 q 479 294 511 374 q 417 121 447 214 q 406 86 413 107 q 391 46 400 65 q 369 13 382 26 q 338 -1 356 -1 m 324 778 q 320 685 322 721 q 314 626 318 649 q 305 593 310 604 q 293 576 300 582 q 237 558 274 557 q 139 558 200 558 q 92 573 115 558 q 69 614 69 588 q 75 719 69 678 q 101 785 81 761 q 160 818 121 808 q 267 828 199 828 q 306 813 293 828 q 324 778 318 799 m 554 132 q 554 233 554 189 q 568 306 554 276 q 617 351 582 336 q 719 367 651 367 q 769 347 753 367 q 785 296 785 328 q 785 218 785 256 q 777 152 786 181 q 742 106 768 124 q 665 89 717 89 q 635 90 654 89 q 599 94 617 90 q 567 107 581 99 q 554 132 554 115 z "},"&":{"ha":811,"x_min":43,"x_max":764,"o":"m 414 504 q 447 448 429 476 q 485 396 464 419 q 499 437 490 410 q 517 490 507 464 q 541 536 528 517 q 572 556 554 556 q 599 553 583 556 q 631 543 615 550 q 657 526 646 536 q 668 501 668 515 q 658 459 668 488 q 635 397 649 431 q 609 333 622 364 q 590 283 596 301 q 628 246 600 272 q 686 190 656 219 q 740 135 717 161 q 764 103 764 110 q 749 72 764 86 q 713 47 733 57 q 669 32 692 38 q 635 26 647 26 q 556 50 589 26 q 486 101 522 74 q 357 26 421 47 q 208 6 293 6 q 149 15 179 6 q 96 41 119 24 q 58 83 72 58 q 43 142 43 108 q 56 224 43 185 q 88 301 68 264 q 133 372 108 338 q 182 438 157 406 q 151 492 165 460 q 125 560 136 525 q 108 629 114 594 q 101 693 101 664 q 131 819 101 761 q 207 919 160 876 q 315 985 254 961 q 440 1008 376 1008 q 508 1001 472 1008 q 576 976 544 993 q 628 931 607 958 q 649 865 649 904 q 622 776 649 825 q 559 676 596 726 q 482 581 522 626 q 414 504 442 535 m 394 185 q 363 213 383 193 q 322 255 343 233 q 281 294 300 276 q 256 317 263 313 q 224 244 239 281 q 208 168 208 207 q 231 111 208 132 q 288 90 254 90 q 323 99 307 90 q 352 122 339 108 q 376 153 365 136 q 394 185 386 169 m 361 640 q 403 692 381 663 q 444 753 425 722 q 476 811 464 783 q 489 857 489 839 q 478 893 489 879 q 443 907 468 907 q 394 888 414 907 q 364 840 375 868 q 349 779 353 811 q 344 724 344 747 q 347 682 344 704 q 361 640 350 660 z "},"'":{"ha":343,"x_min":103,"x_max":253,"o":"m 114 799 q 106 846 110 822 q 103 894 103 869 q 118 953 103 932 q 174 975 133 975 q 226 963 199 975 q 253 919 253 950 q 248 852 253 894 q 231 769 243 810 q 195 700 218 729 q 135 671 172 671 q 109 683 115 671 q 103 711 103 696 q 107 755 103 733 q 114 799 111 776 z "},"(":{"ha":579,"x_min":44,"x_max":544,"o":"m 453 1076 q 486 1061 465 1076 q 522 1026 507 1046 q 540 982 544 999 q 513 943 536 965 q 423 830 464 896 q 355 687 382 764 q 317 528 328 610 q 319 367 307 446 q 367 217 331 288 q 471 93 404 146 q 488 82 476 89 q 509 67 499 75 q 527 51 519 60 q 535 33 535 42 q 523 1 535 17 q 494 -28 511 -15 q 460 -49 478 -40 q 429 -57 442 -57 q 353 -47 389 -57 q 283 -17 317 -36 q 137 122 190 36 q 64 310 83 208 q 57 522 44 413 q 108 732 69 632 q 208 915 146 832 q 351 1047 271 999 q 400 1069 375 1061 q 453 1076 425 1076 z "},")":{"ha":579,"x_min":36,"x_max":536,"o":"m 128 1076 q 181 1069 156 1076 q 229 1047 206 1061 q 372 915 310 999 q 473 732 435 832 q 524 522 511 632 q 517 310 536 413 q 444 122 497 208 q 297 -17 390 36 q 228 -47 264 -36 q 151 -57 192 -57 q 121 -49 139 -57 q 86 -28 103 -40 q 58 1 69 -15 q 46 33 46 17 q 53 51 46 42 q 72 67 61 60 q 93 82 82 75 q 110 93 104 89 q 213 217 176 146 q 262 367 250 288 q 263 528 274 446 q 226 687 253 610 q 158 830 199 764 q 68 943 117 896 q 40 982 44 965 q 58 1026 36 999 q 94 1061 74 1046 q 128 1076 115 1076 z "},"+":{"ha":615,"x_min":54,"x_max":546,"o":"m 385 465 q 424 466 397 465 q 478 464 451 467 q 526 452 506 461 q 546 425 546 443 q 532 388 546 399 q 498 376 518 378 q 456 376 478 374 q 419 378 435 378 l 401 376 q 394 355 393 367 q 394 332 394 343 q 394 279 394 303 q 387 238 394 256 q 360 210 379 219 q 306 200 342 200 q 240 215 260 200 q 213 253 219 229 q 210 310 207 278 q 213 375 213 342 q 171 376 197 376 q 118 379 144 376 q 73 392 92 382 q 54 422 54 401 q 73 455 54 444 q 118 468 92 465 q 172 469 144 471 q 214 468 199 468 q 226 535 224 501 q 235 594 228 568 q 262 635 242 619 q 328 651 282 651 q 375 641 356 651 q 394 599 394 631 q 390 549 394 575 q 385 499 385 524 l 385 465 z "},",":{"ha":274,"x_min":32,"x_max":226,"o":"m 106 -14 q 112 17 108 1 q 115 57 115 33 q 81 70 96 65 q 55 83 65 75 q 38 106 44 92 q 32 144 32 119 q 43 189 32 169 q 72 222 54 208 q 111 241 89 235 q 156 247 133 247 q 195 237 181 247 q 217 210 210 226 q 225 173 224 193 q 226 135 226 153 q 223 78 226 111 q 209 15 219 46 q 180 -36 199 -15 q 129 -57 161 -57 q 101 -46 100 -57 q 106 -14 101 -35 z "},"-":{"ha":450,"x_min":46,"x_max":407,"o":"m 97 372 q 59 386 72 375 q 49 424 46 397 q 54 451 51 439 q 75 468 57 464 q 130 476 94 472 q 203 483 165 481 q 276 485 242 485 q 332 482 311 485 q 362 476 347 479 q 387 465 376 472 q 402 446 397 458 q 404 413 407 433 q 381 384 401 394 q 332 369 361 374 q 267 363 303 364 q 199 364 232 363 q 138 368 165 365 q 97 372 110 371 z "},".":{"ha":294,"x_min":50,"x_max":244,"o":"m 50 107 q 81 183 50 154 q 163 213 113 213 q 228 180 211 213 q 244 106 244 147 q 233 66 244 82 q 204 41 222 50 q 165 28 186 32 q 122 25 143 25 q 66 48 82 25 q 50 107 50 71 z "},";":{"ha":289,"x_min":32,"x_max":244,"o":"m 106 39 q 112 70 108 54 q 115 110 115 86 q 81 123 96 118 q 55 136 65 128 q 38 158 44 144 q 32 197 32 172 q 43 242 32 222 q 72 274 54 261 q 111 294 89 288 q 156 300 133 300 q 195 290 181 300 q 217 263 210 279 q 225 226 224 246 q 226 188 226 206 q 223 131 226 164 q 209 68 219 99 q 180 17 199 38 q 129 -4 161 -4 q 101 7 100 -4 q 106 39 101 18 m 50 590 q 81 667 50 638 q 163 696 113 696 q 228 663 211 696 q 244 589 244 631 q 233 549 244 565 q 204 524 222 533 q 165 512 186 515 q 122 508 143 508 q 66 531 82 508 q 50 590 50 554 z "},"=":{"ha":607,"x_min":60,"x_max":549,"o":"m 114 226 q 75 239 90 226 q 60 276 60 251 q 72 315 60 297 q 106 338 85 333 q 188 349 144 346 q 277 352 232 351 q 367 352 322 353 q 451 351 411 351 q 483 351 467 351 q 515 347 500 351 q 539 331 529 342 q 549 299 549 319 q 538 261 549 279 q 507 239 528 243 q 447 231 478 233 q 385 229 417 229 q 344 229 365 229 q 292 229 322 229 q 219 228 263 229 q 114 226 176 228 m 482 414 q 296 409 379 413 q 154 406 213 406 q 122 405 139 406 q 92 408 106 404 q 69 422 78 411 q 61 453 61 432 q 69 483 61 471 q 91 501 78 494 q 119 511 104 508 q 150 514 135 514 q 225 515 185 514 q 307 516 265 515 q 389 517 349 517 q 464 518 429 518 q 489 517 475 518 q 515 510 503 515 q 536 495 528 504 q 544 471 544 486 q 526 426 544 438 q 482 414 507 415 z "},"¢":{"ha":615,"x_min":50,"x_max":585,"o":"m 406 111 q 404 69 404 94 q 399 19 404 43 q 383 -23 394 -6 q 346 -40 371 -40 q 317 -31 328 -40 q 306 -3 306 -22 q 305 45 306 21 q 301 94 304 69 q 181 126 229 106 q 103 183 132 147 q 62 269 74 218 q 50 393 50 321 q 52 492 50 440 q 63 592 54 543 q 88 684 71 640 q 133 760 104 728 q 206 811 163 793 q 313 828 250 829 l 314 865 q 310 901 314 885 q 306 935 306 918 q 319 955 306 950 q 344 960 333 960 q 376 946 365 960 q 390 913 386 932 q 393 872 393 893 q 393 839 393 851 q 456 821 422 831 q 517 794 489 811 q 565 750 546 776 q 585 683 585 724 q 566 657 585 667 q 532 647 547 647 q 498 666 513 647 q 467 707 483 685 q 431 748 451 729 q 376 767 410 767 q 331 739 350 767 q 298 674 311 711 q 278 598 285 636 q 272 540 272 560 q 272 399 272 474 q 288 260 272 325 q 315 210 294 224 q 372 196 336 196 q 426 214 410 196 q 453 254 443 232 q 477 294 464 276 q 522 313 490 313 q 551 300 546 313 q 557 267 557 288 q 544 208 557 233 q 509 165 531 183 q 460 133 488 146 q 406 111 433 119 z "},"€":{"ha":826,"x_min":38,"x_max":786,"o":"m 458 469 q 514 470 490 469 q 557 473 538 471 q 592 476 576 475 q 624 478 608 478 q 667 469 654 478 q 678 449 679 461 q 665 426 678 438 q 635 410 653 415 q 549 393 593 396 q 460 388 504 390 q 458 374 458 381 q 457 360 457 367 q 464 298 457 338 q 487 219 471 258 q 527 152 503 181 q 586 124 551 124 q 630 135 614 124 q 656 166 646 147 q 671 206 665 185 q 683 245 676 226 q 701 276 690 264 q 732 288 713 288 q 769 269 756 288 q 783 232 783 251 q 758 144 783 183 q 692 78 733 106 q 600 37 651 51 q 496 22 549 22 q 362 56 417 22 q 272 142 307 90 q 215 257 236 194 q 181 375 193 319 q 146 381 163 382 q 114 381 129 381 q 56 388 74 381 q 38 407 38 396 q 56 429 39 418 q 104 449 74 440 q 140 456 122 453 q 175 464 157 460 q 180 491 181 479 q 175 514 179 503 l 124 513 q 74 520 90 513 q 56 538 57 528 q 69 559 54 549 q 117 576 85 569 q 153 582 135 579 q 189 590 171 585 q 233 728 199 664 q 322 838 267 792 q 450 912 376 885 q 613 939 524 939 q 677 932 646 939 q 733 910 708 925 q 772 873 757 896 q 786 817 786 850 q 774 772 786 794 q 729 750 761 750 q 694 765 704 750 q 676 797 683 779 q 656 828 668 814 q 615 843 644 843 q 564 815 588 843 q 522 748 540 786 q 492 669 504 710 q 479 606 481 629 q 502 603 490 604 q 526 603 514 603 q 601 608 564 603 q 674 613 638 613 q 724 606 708 613 q 741 589 740 599 q 727 568 742 579 q 686 550 713 557 q 628 539 660 543 q 567 533 597 535 q 510 530 536 531 q 468 528 483 529 q 459 508 461 519 q 458 469 457 497 z "},"¥":{"ha":711,"x_min":29,"x_max":674,"o":"m 311 429 q 219 424 265 426 q 126 422 172 422 q 103 433 111 422 q 94 458 94 444 q 113 485 94 476 q 158 497 132 493 q 209 501 183 501 q 249 503 235 501 q 194 563 231 522 q 122 648 158 603 q 57 735 85 693 q 29 800 29 778 q 47 825 29 811 q 89 851 65 839 q 136 872 113 864 q 171 881 160 881 q 195 874 183 881 q 215 858 207 868 q 299 750 261 803 q 386 639 336 697 q 416 712 396 661 q 461 815 436 763 q 514 906 486 867 q 567 946 542 946 q 594 944 576 946 q 629 938 611 942 q 660 926 647 933 q 674 907 674 918 q 664 869 674 897 q 638 804 654 842 q 603 724 622 767 q 567 642 585 682 q 536 568 550 601 q 517 517 522 535 q 555 513 536 513 q 594 513 574 513 q 632 475 632 513 q 614 442 632 451 q 572 431 596 433 q 522 432 547 429 q 485 435 497 435 q 474 407 478 419 q 465 379 469 394 q 506 375 479 375 q 558 374 532 375 q 602 365 583 372 q 621 339 621 357 q 613 315 621 322 q 594 304 606 307 q 569 302 582 301 q 544 303 556 303 l 447 303 q 422 188 435 244 q 396 74 410 131 q 380 31 389 46 q 339 17 371 17 q 249 29 292 17 q 238 57 238 43 q 244 97 238 61 q 258 176 250 133 q 272 256 265 219 q 281 299 279 293 q 240 299 269 300 q 181 301 211 299 q 128 311 151 303 q 104 339 104 319 q 111 362 104 353 q 128 375 118 371 q 151 381 139 379 q 174 382 163 382 q 228 378 201 382 q 283 375 256 375 l 299 375 q 308 396 303 385 q 311 429 313 407 z "},"×":{"ha":496,"x_min":36,"x_max":447,"o":"m 215 303 q 195 267 207 289 q 170 224 183 244 q 141 188 157 203 q 107 175 125 174 q 86 180 99 176 q 63 190 74 183 q 44 204 51 196 q 36 224 36 213 q 53 254 38 231 q 89 305 69 278 q 127 356 108 332 q 153 390 146 381 q 130 421 146 400 q 98 465 114 442 q 70 508 82 488 q 58 536 58 528 q 72 557 60 546 q 99 576 83 568 q 132 590 115 585 q 158 594 149 596 q 181 582 168 593 q 206 556 193 571 q 230 527 218 542 q 249 504 242 513 q 274 535 261 517 q 303 569 288 553 q 337 597 319 586 q 374 607 354 608 q 407 596 389 604 q 422 568 425 588 q 408 541 422 561 q 374 497 393 521 q 338 453 356 474 q 315 425 321 432 q 337 386 319 413 q 376 331 354 360 q 417 276 397 303 q 447 238 438 250 q 431 213 444 224 q 399 194 417 201 q 364 184 382 188 q 333 182 346 181 q 303 198 319 183 q 269 233 286 213 q 238 272 253 253 q 215 303 224 292 z "},"÷":{"ha":567,"x_min":46,"x_max":525,"o":"m 182 356 q 140 355 164 356 q 96 358 117 354 q 60 373 75 361 q 46 410 46 385 q 70 453 46 442 q 124 465 94 465 l 415 465 q 446 464 428 465 q 482 458 464 463 q 513 444 500 453 q 525 418 525 435 q 506 367 525 382 q 454 353 488 353 l 182 356 m 294 667 q 348 645 338 667 q 358 585 358 624 q 340 546 358 554 q 293 538 321 538 q 256 538 272 538 q 227 542 239 538 q 208 560 215 547 q 201 596 201 572 q 209 646 201 624 q 250 668 217 668 l 294 667 m 282 296 q 325 285 306 296 q 344 246 344 274 q 322 192 344 208 q 263 175 299 175 q 219 194 235 175 q 204 239 204 213 q 227 288 204 279 q 282 296 250 296 z "},"O":{"ha":803,"x_min":50,"x_max":765,"o":"m 765 518 q 740 326 765 419 q 663 159 714 232 q 535 42 611 86 q 360 -1 460 -1 q 214 42 274 -1 q 118 152 154 85 q 66 301 82 219 q 50 461 50 383 q 71 662 50 558 q 138 851 92 765 q 260 991 185 936 q 444 1046 336 1046 q 551 1022 504 1046 q 634 956 599 997 q 694 860 669 914 q 735 747 719 806 q 758 629 751 689 q 765 518 765 569 m 346 438 q 352 353 346 406 q 374 251 358 301 q 415 165 389 201 q 481 128 440 128 q 544 149 517 128 q 591 203 571 169 q 625 280 611 238 q 647 366 639 322 q 658 449 654 410 q 661 518 661 489 q 658 581 661 540 q 649 668 656 621 q 631 765 642 715 q 603 853 619 814 q 563 918 586 893 q 510 943 540 943 q 455 912 479 943 q 413 833 431 881 q 382 726 394 785 q 361 610 369 667 q 349 508 353 554 q 346 438 346 461 z "},"N":{"ha":786,"x_min":42,"x_max":768,"o":"m 593 274 q 613 578 607 426 q 638 883 618 731 q 666 943 643 931 q 733 956 689 956 q 762 946 756 956 q 768 917 768 936 q 763 834 768 876 q 751 751 757 792 q 736 596 742 679 q 724 428 731 513 q 708 263 718 343 q 682 115 699 182 q 644 55 671 71 q 572 39 617 39 q 529 62 551 39 q 483 121 507 85 q 437 201 460 157 q 394 287 414 244 q 357 364 374 329 q 331 417 340 399 l 331 301 q 335 190 331 246 q 340 79 340 135 q 322 37 340 54 q 276 8 303 19 q 222 -9 250 -4 q 174 -14 193 -14 q 115 -4 138 -14 q 85 44 93 6 q 65 174 72 100 q 51 327 57 249 q 44 481 46 406 q 42 615 42 557 q 42 694 42 651 q 44 780 43 736 q 48 866 46 824 q 54 946 50 908 q 73 994 57 975 q 112 1023 89 1013 q 162 1038 135 1033 q 214 1042 189 1042 q 248 1040 231 1042 q 282 1033 265 1039 q 342 969 329 1019 q 366 889 347 947 q 409 755 385 831 q 462 597 433 679 q 516 444 490 514 q 563 327 542 375 q 593 274 583 279 z "},"M":{"ha":928,"x_min":53,"x_max":882,"o":"m 513 544 q 611 747 561 646 q 707 951 661 849 q 745 997 722 985 q 803 1008 768 1008 q 850 995 835 1008 q 868 946 865 982 q 881 597 879 772 q 882 246 882 421 q 877 151 882 193 q 855 78 872 108 q 803 31 838 47 q 711 15 769 15 q 667 21 686 15 q 647 58 647 26 q 654 212 647 135 q 669 366 661 289 q 683 520 676 443 q 690 674 690 597 l 689 707 q 643 625 664 675 q 598 527 622 575 q 543 444 574 479 q 468 410 513 410 q 419 428 442 410 q 378 472 397 446 q 344 528 360 499 q 317 578 329 557 q 308 570 310 575 q 306 558 306 565 q 313 376 306 464 q 332 196 321 288 q 340 144 335 172 q 346 93 346 117 q 332 42 346 63 q 297 10 318 22 q 249 -6 275 -1 q 200 -11 224 -11 q 149 29 171 -11 q 110 131 126 69 q 83 269 93 193 q 65 415 72 344 q 56 543 58 486 q 53 625 53 600 q 56 781 53 703 q 72 935 60 858 q 94 986 76 965 q 138 1020 113 1007 q 191 1039 163 1033 q 244 1044 219 1044 q 308 1034 283 1044 q 347 982 333 1024 q 426 762 385 871 q 513 544 468 653 z "},"L":{"ha":557,"x_min":50,"x_max":510,"o":"m 50 272 q 51 548 50 433 q 52 742 51 663 q 55 869 53 821 q 60 946 57 917 q 74 999 64 979 q 103 1030 85 1019 q 146 1043 121 1040 q 203 1046 171 1046 q 232 1044 215 1046 q 263 1038 249 1043 q 288 1022 278 1032 q 299 993 299 1011 q 297 882 299 944 q 292 754 294 819 q 288 626 290 689 q 286 517 286 564 q 288 340 286 431 q 300 165 289 249 q 319 127 304 138 q 354 115 333 117 q 399 115 375 113 q 443 118 422 118 q 487 111 464 118 q 510 78 510 104 q 488 41 510 53 q 444 28 465 29 q 288 16 365 24 q 131 8 210 8 q 86 15 107 8 q 61 49 65 21 q 51 160 53 104 q 50 272 50 217 z "},"K":{"ha":667,"x_min":25,"x_max":651,"o":"m 314 549 q 371 641 342 586 q 427 756 400 696 q 479 874 454 817 q 525 972 504 931 q 559 1003 540 1000 q 607 1004 578 1007 q 636 997 621 1003 q 650 974 651 992 q 634 918 649 954 q 599 838 619 882 q 553 745 578 793 q 508 655 529 697 q 473 579 488 613 q 457 532 458 546 q 465 449 454 499 q 493 345 476 400 q 530 235 510 290 q 567 134 550 179 q 597 59 585 89 q 608 26 608 29 q 597 10 608 17 q 572 1 586 4 q 544 -4 558 -3 q 524 -6 531 -6 q 489 22 507 -4 q 452 90 471 49 q 416 179 433 131 q 385 273 399 228 q 362 354 371 318 q 350 406 353 390 q 308 347 310 389 q 304 218 303 282 q 300 90 306 154 q 247 13 297 33 q 110 1 197 -8 q 44 22 63 7 q 26 86 25 38 q 35 403 28 247 q 49 719 42 560 q 51 781 50 747 q 51 851 51 815 q 51 920 51 886 q 54 982 51 954 q 69 1015 56 1003 q 103 1034 83 1028 q 144 1042 122 1040 q 183 1042 167 1043 q 250 1026 219 1039 q 276 987 265 1019 q 294 908 288 954 q 303 806 300 861 q 309 701 307 751 q 312 609 311 650 q 314 549 313 568 z "},"J":{"ha":608,"x_min":39,"x_max":572,"o":"m 572 607 q 570 486 572 557 q 561 342 568 415 q 540 201 554 268 q 504 90 526 133 q 466 42 488 60 q 419 17 444 25 q 366 6 394 8 q 307 4 338 4 q 201 11 250 4 q 117 40 153 18 q 60 102 81 63 q 39 208 39 142 q 40 250 39 231 q 48 283 42 269 q 69 305 54 297 q 110 313 83 313 q 155 295 142 313 q 173 252 168 278 q 176 197 178 226 q 178 141 175 167 q 192 98 182 115 q 231 81 203 81 q 263 95 250 81 q 281 131 275 110 q 290 174 288 151 q 292 211 292 196 q 289 359 292 281 q 283 517 286 438 q 278 676 281 597 q 275 824 275 754 q 273 911 275 871 q 281 981 271 951 q 319 1028 290 1011 q 410 1044 347 1044 q 463 1038 438 1044 q 513 1021 489 1032 q 547 974 543 1007 q 557 888 553 936 q 565 790 561 840 q 570 692 568 740 q 572 607 572 644 z "},"I":{"ha":588,"x_min":21,"x_max":563,"o":"m 146 75 q 144 135 144 106 q 143 196 143 165 q 145 374 143 279 q 151 567 147 469 q 158 760 154 665 q 165 938 161 856 l 133 938 q 101 938 121 938 q 64 944 82 939 q 33 960 46 950 q 21 989 21 969 q 32 1025 21 1008 q 64 1042 43 1042 l 121 1042 q 317 1041 219 1042 q 511 1038 415 1040 q 547 1028 531 1036 q 563 997 563 1019 q 549 956 563 968 q 517 940 536 943 q 476 940 499 938 q 435 943 453 943 q 422 940 431 943 q 413 851 415 907 q 409 726 410 794 q 409 582 408 657 q 412 437 410 507 q 415 308 414 367 q 417 211 417 249 q 419 155 417 183 q 421 99 421 126 q 449 94 435 94 q 479 94 464 94 q 527 82 511 94 q 543 35 543 69 q 513 4 543 14 q 444 -10 483 -6 q 367 -13 404 -14 q 313 -12 329 -12 q 251 -15 294 -12 q 163 -15 208 -17 q 84 -3 118 -12 q 50 29 50 7 q 60 60 50 50 q 84 74 69 71 q 115 76 99 76 q 146 75 132 75 z "},"H":{"ha":722,"x_min":44,"x_max":676,"o":"m 522 343 q 483 349 503 347 q 444 350 464 350 q 371 346 407 350 q 299 336 335 342 q 308 188 299 253 q 317 60 317 122 q 301 23 317 38 q 265 -1 286 8 q 219 -14 243 -10 q 178 -18 196 -18 q 140 -17 158 -18 q 108 -11 122 -17 q 83 6 93 -6 q 69 38 72 17 q 49 219 54 129 q 44 401 44 310 q 47 539 44 465 q 53 688 49 613 q 65 837 57 764 q 83 972 72 910 q 99 1007 88 993 q 128 1030 111 1021 q 163 1042 144 1039 q 201 1046 182 1046 q 241 1044 222 1046 q 273 1035 260 1042 q 294 1014 286 1028 q 303 976 303 1000 q 301 869 303 928 q 297 752 299 811 q 293 635 294 693 q 292 529 292 578 q 293 472 292 500 q 296 415 294 444 l 529 436 q 531 565 531 492 q 533 715 532 638 q 535 865 533 792 q 542 993 538 938 q 550 1022 543 1013 q 567 1036 557 1032 q 590 1041 576 1040 q 621 1042 604 1042 q 655 1033 643 1042 q 672 1009 667 1024 q 676 976 676 994 q 676 939 676 957 q 674 722 676 839 q 669 487 672 606 q 665 252 667 368 q 663 36 663 136 q 655 10 663 19 q 635 -3 647 1 q 608 -8 622 -7 q 582 -10 594 -10 q 548 7 563 -10 q 531 56 533 24 q 528 144 528 101 q 528 226 528 188 q 527 294 528 264 q 522 343 526 324 z "},"G":{"ha":728,"x_min":42,"x_max":683,"o":"m 474 451 q 434 461 454 451 q 414 499 414 471 q 433 543 414 531 q 479 556 451 556 q 509 556 490 556 q 549 557 528 557 q 592 555 571 557 q 632 547 614 553 q 653 537 646 543 q 665 522 661 531 q 669 504 668 514 q 671 482 669 494 q 679 405 675 443 q 683 326 683 367 q 667 190 683 251 q 615 87 650 129 q 526 22 581 44 q 396 -1 471 -1 q 233 38 300 -1 q 123 141 165 76 q 61 290 81 206 q 42 465 42 374 q 48 583 42 519 q 69 708 54 646 q 109 828 85 769 q 171 932 133 886 q 258 1008 208 978 q 374 1043 308 1038 q 484 1042 435 1049 q 569 1012 533 1035 q 623 947 604 989 q 642 839 642 906 q 629 790 642 807 q 585 774 617 774 q 562 788 569 774 q 549 824 554 803 q 538 871 543 846 q 526 917 533 896 q 506 953 519 939 q 472 968 493 968 q 424 943 444 968 q 390 878 404 918 q 367 791 375 839 q 353 697 358 743 q 347 613 349 651 q 344 553 344 574 q 346 486 344 529 q 352 393 347 443 q 366 291 357 343 q 390 197 375 239 q 428 127 406 154 q 483 100 451 100 q 533 115 515 100 q 560 155 551 131 q 572 208 569 179 q 574 261 574 236 q 571 357 574 310 q 565 450 568 404 l 474 451 z "},"F":{"ha":639,"x_min":39,"x_max":618,"o":"m 69 976 q 40 1003 42 992 q 53 1024 39 1015 q 88 1036 67 1032 q 125 1040 108 1040 q 240 1042 179 1040 q 360 1043 300 1043 q 480 1039 421 1043 q 592 1022 539 1035 q 618 990 618 1015 q 596 952 618 963 q 550 942 574 942 q 431 949 492 942 q 313 961 371 957 q 313 939 311 956 q 316 883 314 922 q 320 773 318 843 q 322 592 322 703 l 488 592 q 511 590 497 592 q 538 583 525 588 q 560 570 551 578 q 569 550 569 563 q 539 501 569 515 q 467 485 508 488 q 384 484 426 482 q 319 485 342 486 q 317 375 317 428 q 318 272 317 322 q 321 173 319 222 q 322 72 322 124 q 292 10 322 25 q 222 -6 263 -6 q 172 -3 197 -6 q 124 4 147 0 q 78 22 92 10 q 64 67 65 35 q 61 308 60 189 q 65 542 63 428 q 70 766 68 657 q 69 976 72 875 z "},"E":{"ha":686,"x_min":57,"x_max":661,"o":"m 385 940 q 330 942 349 946 q 303 930 311 939 q 293 910 294 921 q 292 893 292 900 q 297 724 293 808 q 303 557 300 640 q 384 557 343 550 q 465 564 425 564 q 518 513 518 564 q 490 474 518 485 q 427 462 463 464 q 358 463 392 460 q 310 465 324 465 q 307 457 308 461 q 306 446 306 453 q 310 294 306 375 q 326 142 315 213 q 358 111 331 111 q 415 115 385 111 q 477 122 446 118 q 539 130 508 126 q 594 133 569 133 q 634 119 619 133 q 649 79 649 106 q 622 54 649 65 q 552 35 594 43 q 459 19 510 26 q 362 8 408 13 q 279 2 315 4 q 231 0 243 0 q 140 19 176 0 q 89 96 104 38 q 68 214 75 153 q 59 337 61 275 q 58 460 57 399 q 58 581 58 522 q 58 769 58 676 q 61 956 58 863 q 64 988 61 975 q 74 1008 67 1000 q 92 1022 81 1017 q 119 1033 103 1028 q 156 1041 135 1039 q 199 1044 176 1043 q 244 1046 222 1046 q 282 1046 265 1046 q 330 1044 296 1046 q 406 1040 364 1043 q 492 1032 447 1038 q 575 1018 538 1026 q 637 998 613 1010 q 661 969 661 986 q 640 920 661 939 q 592 901 619 901 q 490 916 543 901 q 385 940 438 931 z "},"D":{"ha":713,"x_min":42,"x_max":665,"o":"m 306 935 q 364 956 335 947 q 425 965 393 965 q 516 943 478 965 q 581 884 554 921 q 624 800 608 847 q 649 703 640 753 q 662 605 658 653 q 665 518 665 557 q 650 325 665 418 q 592 161 635 232 q 474 48 549 90 q 279 6 399 6 q 218 -2 247 6 q 157 -10 189 -10 q 106 -3 129 -10 q 76 36 82 4 q 42 505 42 271 q 63 954 43 739 q 76 1001 65 985 q 106 1024 88 1017 q 148 1031 124 1031 q 201 1032 172 1032 q 259 1029 239 1032 q 289 1016 279 1026 q 301 987 299 1006 q 306 935 304 968 m 350 110 q 415 138 388 110 q 461 211 442 167 q 492 310 481 256 q 510 419 503 365 q 519 518 517 472 q 521 590 521 564 q 519 636 521 607 q 511 699 517 665 q 497 769 506 733 q 476 834 489 806 q 445 881 463 863 q 404 900 428 900 q 340 869 363 900 q 307 797 318 839 q 294 713 296 756 q 292 647 292 671 q 291 586 292 632 q 290 481 290 540 q 292 356 290 421 q 301 235 294 290 q 319 145 308 181 q 350 110 331 110 z "},"C":{"ha":667,"x_min":40,"x_max":629,"o":"m 533 224 q 554 269 543 250 q 585 288 565 288 q 616 274 603 288 q 629 240 629 261 q 603 134 629 179 q 538 59 578 89 q 450 14 499 29 q 354 -1 401 -1 q 206 33 263 -1 q 115 125 149 67 q 67 260 82 183 q 49 422 53 336 q 58 690 40 574 q 125 885 76 807 q 254 1003 174 963 q 450 1043 335 1043 q 520 1033 488 1043 q 577 1000 553 1022 q 615 945 601 978 q 629 867 629 913 q 615 838 629 847 q 585 828 600 828 q 556 844 565 828 q 538 882 547 861 q 513 919 528 903 q 467 936 497 936 q 419 915 439 936 q 386 859 400 893 q 364 783 372 825 q 351 701 356 742 q 344 624 346 660 q 342 567 342 588 q 341 483 342 526 q 342 397 340 440 q 347 311 343 353 q 363 232 351 269 q 444 109 394 110 q 533 224 494 108 z "},"B":{"ha":654,"x_min":44,"x_max":631,"o":"m 313 907 q 353 948 332 926 q 397 988 374 969 q 447 1017 421 1006 q 504 1029 474 1029 q 584 988 556 1029 q 622 885 613 947 q 622 749 631 822 q 590 610 613 675 q 534 498 568 544 q 458 443 500 451 q 551 377 514 422 q 601 278 589 332 q 599 169 614 224 q 533 75 583 114 q 473 38 506 53 q 405 13 440 22 q 333 -2 369 3 q 264 -7 297 -7 q 138 13 181 -7 q 76 69 94 32 q 55 160 57 107 q 50 282 53 214 q 49 617 44 447 q 81 950 54 788 q 93 998 85 979 q 116 1027 101 1017 q 151 1041 131 1038 q 203 1044 172 1044 q 238 1042 218 1044 q 275 1033 257 1040 q 306 1014 293 1026 q 318 982 318 1001 q 316 944 318 963 q 313 907 314 926 m 307 461 q 398 533 361 490 q 457 628 435 576 q 488 738 479 679 q 496 857 497 796 q 485 911 493 894 q 463 928 476 928 q 433 917 450 929 q 400 883 417 904 q 331 776 353 825 q 303 678 310 726 q 301 578 297 631 q 307 461 304 525 m 476 229 q 469 276 475 250 q 451 327 463 303 q 420 368 439 351 q 376 385 401 385 q 328 374 350 385 q 307 335 306 364 l 314 140 q 315 115 314 125 q 319 100 315 106 q 332 92 324 94 q 357 90 340 90 q 406 102 383 90 q 444 134 428 114 q 469 179 460 154 q 476 229 478 204 z "},"A":{"ha":778,"x_min":56,"x_max":721,"o":"m 335 253 q 322 188 325 219 q 317 128 319 156 q 310 77 315 100 q 289 38 306 54 q 241 12 272 21 q 157 3 210 3 q 104 8 124 3 q 74 26 85 14 q 59 60 63 39 q 56 111 56 81 q 65 275 56 179 q 95 475 74 371 q 153 681 117 579 q 242 865 189 783 q 369 997 296 946 q 539 1047 442 1047 q 595 1043 568 1047 q 644 1027 622 1039 q 682 995 667 1015 q 704 943 697 975 q 720 773 721 863 q 719 600 719 683 q 715 332 719 472 q 710 65 710 192 q 690 13 710 26 q 633 0 671 0 q 589 19 601 0 q 572 67 576 39 q 570 128 568 93 q 572 194 572 163 q 567 247 572 225 q 546 268 563 268 q 440 262 493 268 q 335 253 388 256 m 567 343 q 578 559 578 451 q 578 775 578 667 q 575 800 578 785 q 567 830 572 815 q 552 854 561 844 q 531 864 543 864 q 484 819 507 856 q 439 729 461 782 q 399 615 417 676 q 367 497 381 554 q 348 393 354 440 q 346 324 342 346 l 567 343 z "},"a":{"ha":832,"x_min":36,"x_max":806,"o":"m 506 756 q 520 821 514 799 q 541 853 526 843 q 584 865 556 864 q 665 867 613 867 q 698 865 682 867 q 726 856 714 863 q 747 838 739 850 q 754 807 754 826 q 753 746 754 771 q 749 697 751 721 q 746 647 747 672 q 744 586 744 621 q 753 369 744 476 q 778 154 763 263 q 784 133 779 144 q 794 109 789 121 q 802 88 799 97 q 806 71 806 78 q 785 34 806 50 q 735 8 764 18 q 678 -6 707 -1 q 633 -11 649 -11 q 567 6 590 -11 q 532 49 544 22 q 514 110 519 76 q 501 175 508 143 q 478 147 490 171 q 441 94 465 122 q 374 44 417 67 q 263 21 332 21 q 153 59 196 21 q 83 153 110 97 q 47 274 57 210 q 36 390 36 339 q 53 543 36 471 q 109 671 71 615 q 210 759 147 726 q 365 792 274 792 q 436 781 401 792 q 506 756 471 769 m 339 724 q 274 688 299 724 q 236 604 250 653 q 217 506 222 556 q 213 428 213 456 q 219 355 213 406 q 238 252 225 304 q 273 160 251 200 q 325 121 294 121 q 371 157 350 121 q 408 248 392 193 q 437 368 425 303 q 456 490 449 433 q 464 572 461 531 q 458 647 467 614 q 421 702 449 681 q 339 724 393 724 z "},"T":{"ha":739,"x_min":26,"x_max":711,"o":"m 246 921 q 191 918 218 919 q 136 917 164 917 q 100 917 119 917 q 64 923 81 918 q 37 940 47 928 q 26 974 26 951 q 40 1006 26 994 q 74 1018 54 1017 q 313 1035 192 1026 q 551 1044 433 1044 q 597 1047 569 1044 q 649 1045 624 1049 q 693 1030 675 1042 q 711 992 711 1018 q 683 947 711 960 q 618 931 656 933 q 543 931 581 928 q 485 933 506 933 q 476 865 476 901 q 478 676 476 778 q 484 467 481 574 q 490 259 488 361 q 492 69 492 157 q 475 35 492 49 q 435 11 458 21 q 388 -3 413 1 q 349 -7 364 -7 q 312 -3 329 -7 q 278 6 294 0 q 247 44 257 11 q 235 117 238 76 q 233 198 232 158 q 233 257 233 238 q 235 404 233 324 q 240 569 238 485 q 245 734 243 653 q 247 881 247 815 l 246 921 z "},"x":{"ha":747,"x_min":50,"x_max":708,"o":"m 386 593 q 413 633 397 606 q 449 692 429 660 q 490 760 468 725 q 532 823 511 794 q 572 869 553 851 q 606 888 590 888 q 641 873 631 888 q 651 838 651 858 q 606 749 632 793 q 552 660 581 704 q 494 572 524 615 q 439 488 465 529 q 552 299 494 390 q 681 118 610 208 q 699 95 690 107 q 708 68 708 83 q 683 30 708 47 q 623 1 657 13 q 554 -16 589 -10 q 503 -22 519 -22 q 446 8 476 -22 q 386 80 415 39 q 331 161 357 121 q 288 221 304 201 q 263 169 276 203 q 231 103 249 136 q 192 47 213 71 q 151 22 172 22 q 113 29 135 22 q 92 57 92 36 q 101 88 92 67 q 125 135 111 108 q 156 191 139 161 q 186 247 172 221 q 210 295 200 274 q 219 326 219 317 q 207 365 219 335 q 176 438 194 394 q 135 531 157 481 q 94 632 113 582 q 63 726 75 682 q 50 801 50 771 q 72 840 50 822 q 122 870 93 857 q 182 890 151 883 q 231 897 213 897 q 288 858 274 897 q 334 724 311 790 q 386 593 357 658 z "},"v":{"ha":742,"x_min":51,"x_max":714,"o":"m 714 768 q 701 710 714 758 q 668 592 688 661 q 624 444 649 524 q 577 294 600 365 q 536 168 554 222 q 511 96 518 114 q 479 49 500 68 q 433 17 458 29 q 378 -1 407 4 q 321 -7 349 -7 q 207 37 253 -7 q 131 150 161 81 q 84 306 100 219 q 61 476 68 392 q 53 633 54 560 q 51 753 51 707 l 53 775 q 72 829 54 808 q 117 860 90 850 q 176 874 144 871 q 236 878 207 878 q 274 864 263 878 q 290 826 285 850 q 300 749 294 804 q 311 624 306 694 q 324 478 317 554 q 342 338 332 403 q 365 229 351 274 q 396 179 378 185 q 426 216 408 179 q 464 309 444 253 q 503 434 483 365 q 540 566 522 503 q 573 678 558 629 q 596 747 588 728 q 619 783 604 767 q 657 799 633 799 q 694 792 675 799 q 714 768 714 786 z "},"w":{"ha":1135,"x_min":44,"x_max":1085,"o":"m 551 158 q 490 89 518 119 q 429 37 461 58 q 358 4 397 15 q 264 -7 319 -7 q 161 22 201 -7 q 97 96 121 50 q 61 199 72 142 q 47 316 50 257 q 47 428 44 375 q 50 521 49 482 q 60 643 53 583 q 78 752 67 703 q 106 837 89 801 q 146 885 122 872 q 231 907 186 907 q 255 905 240 907 q 284 898 269 903 q 309 885 299 893 q 319 863 319 876 q 317 846 319 857 q 306 776 313 826 q 292 657 299 725 q 280 510 285 589 q 276 358 275 432 q 292 202 278 257 q 326 127 306 147 q 373 119 347 107 q 423 163 399 131 q 469 244 447 196 q 503 349 490 293 q 521 451 514 399 q 542 571 528 504 q 574 609 547 599 q 625 619 600 619 q 674 611 658 619 q 694 588 689 603 q 699 551 700 572 q 697 507 697 531 q 700 449 697 488 q 709 363 703 410 q 725 267 715 317 q 750 178 735 218 q 786 113 765 139 q 835 88 807 88 q 898 128 874 88 q 935 231 922 168 q 951 369 947 293 q 955 516 956 444 q 952 644 954 588 q 950 728 950 701 q 971 769 950 760 q 1019 779 992 779 q 1070 767 1060 779 q 1081 717 1081 754 q 1083 575 1081 654 q 1081 413 1085 496 q 1061 252 1076 331 q 1010 112 1046 174 q 917 13 975 50 q 767 -25 858 -25 q 685 -10 717 -25 q 630 31 653 6 q 590 89 607 56 q 551 158 572 122 z "},"u":{"ha":819,"x_min":43,"x_max":771,"o":"m 611 208 q 492 70 568 119 q 317 21 417 21 q 185 49 238 21 q 101 126 132 78 q 56 239 69 175 q 43 372 43 303 q 44 440 43 400 q 49 524 44 479 q 64 613 54 568 q 90 693 74 657 q 133 751 107 729 q 196 775 158 774 q 226 776 211 775 q 256 778 240 778 q 294 775 274 778 q 331 764 314 772 q 360 740 349 756 q 371 701 371 725 q 366 651 371 681 q 356 586 361 621 q 345 515 350 551 q 340 443 340 478 q 340 404 340 431 q 342 346 340 378 q 349 279 344 314 q 360 216 353 244 q 380 169 368 188 q 408 151 392 151 q 449 185 428 151 q 489 272 469 219 q 526 389 508 325 q 560 512 544 453 q 586 617 575 571 q 604 683 597 664 q 643 728 615 714 q 701 743 671 743 q 754 734 738 743 q 771 685 771 725 q 766 396 771 540 q 761 106 761 251 q 754 56 761 72 q 734 33 747 39 q 700 27 721 26 q 651 28 679 28 q 622 43 636 28 q 608 74 608 58 q 612 140 608 107 q 618 206 615 172 l 611 208 z "},"t":{"ha":672,"x_min":39,"x_max":640,"o":"m 169 535 q 133 537 156 536 q 90 542 111 538 q 54 555 69 546 q 39 582 39 564 q 60 619 39 611 q 106 628 82 628 q 138 626 122 628 q 171 619 154 625 q 194 806 182 710 q 228 990 207 903 q 254 1037 235 1018 q 303 1058 274 1056 q 330 1060 317 1060 q 356 1060 343 1060 q 399 1058 376 1060 q 438 1048 421 1056 q 467 1024 456 1040 q 478 981 478 1008 q 467 811 478 896 q 456 642 456 726 q 468 618 456 618 q 496 618 481 618 q 533 619 508 618 q 581 616 557 619 q 623 603 606 613 q 640 574 640 594 q 620 535 640 551 q 579 518 600 518 q 522 524 551 518 q 464 529 493 529 q 461 454 461 497 q 464 364 461 411 q 472 272 467 317 q 488 191 478 226 q 512 135 497 156 q 546 117 526 114 q 594 121 571 121 q 622 108 613 121 q 631 81 631 96 q 607 42 631 58 q 552 16 583 26 q 488 1 521 6 q 439 -4 456 -4 q 321 20 368 -4 q 243 85 274 44 q 198 178 213 125 q 176 288 183 231 q 169 401 169 344 q 169 508 169 458 l 169 535 z "},"s":{"ha":576,"x_min":47,"x_max":538,"o":"m 442 879 q 388 858 411 879 q 364 807 364 838 q 391 649 364 726 q 451 495 418 572 q 510 340 483 418 q 538 181 538 261 q 506 95 538 131 q 427 38 474 60 q 328 5 381 15 q 235 -6 275 -6 q 188 -3 219 -6 q 126 5 157 -1 q 71 24 94 11 q 47 58 47 38 q 55 91 47 81 q 74 104 63 101 q 101 106 86 107 q 131 106 115 106 q 178 119 160 106 q 205 153 196 132 q 217 199 214 174 q 221 247 221 224 q 204 363 221 306 q 167 476 188 419 q 129 591 146 533 q 113 710 113 649 q 135 824 113 774 q 196 908 157 874 q 287 959 235 942 q 400 976 339 976 q 435 974 413 976 q 481 966 458 972 q 519 949 503 960 q 536 921 536 939 q 527 888 536 897 q 503 877 518 879 q 472 877 489 875 q 442 879 456 879 z "},"r":{"ha":693,"x_min":50,"x_max":665,"o":"m 357 708 q 420 749 388 728 q 487 786 453 769 q 557 814 521 803 q 631 825 593 825 q 658 810 650 825 q 665 778 665 796 q 634 726 665 742 q 569 711 603 711 q 499 694 536 711 q 429 649 461 676 q 376 588 397 621 q 356 521 356 554 q 363 360 356 442 q 385 201 369 279 q 401 138 392 169 q 411 69 411 106 q 392 28 411 43 q 348 6 374 14 q 294 -3 322 -1 q 246 -4 265 -4 l 182 -3 q 146 0 160 -3 q 122 10 132 3 q 107 31 113 18 q 96 63 101 43 q 61 238 72 149 q 50 415 50 326 q 51 486 50 442 q 55 581 51 531 q 67 685 58 632 q 90 783 75 738 q 128 860 106 828 q 185 901 151 892 q 227 910 204 908 q 272 913 250 913 q 300 913 282 913 q 335 909 318 913 q 365 899 353 906 q 378 878 378 892 q 367 808 378 844 q 356 736 356 772 l 357 708 z "},"q":{"ha":806,"x_min":51,"x_max":778,"o":"m 456 296 q 371 269 411 282 q 282 257 331 257 q 112 319 172 257 q 51 490 51 382 q 84 636 51 571 q 172 746 117 701 q 297 815 226 790 q 443 839 368 839 q 511 831 478 839 q 576 822 544 822 q 634 834 606 822 q 694 846 663 846 q 722 844 708 846 q 748 838 736 843 q 767 824 760 833 q 775 797 775 814 q 763 685 775 743 q 743 572 750 626 q 735 474 738 524 q 732 376 732 425 q 738 228 732 303 q 758 83 743 154 q 769 45 761 65 q 778 7 778 25 q 754 -36 778 -17 q 699 -69 731 -56 q 634 -91 667 -83 q 582 -99 601 -99 q 524 -76 547 -99 q 487 -18 501 -54 q 466 63 472 18 q 457 151 460 107 q 455 233 454 194 q 456 296 456 271 m 304 511 q 309 469 304 494 q 324 420 314 444 q 349 378 333 396 q 385 361 364 361 q 421 373 400 361 q 451 400 442 385 q 463 432 456 408 q 476 485 469 456 q 490 550 483 515 q 502 616 497 585 q 510 672 507 647 q 514 707 514 696 q 497 738 514 731 q 461 744 481 744 q 386 722 417 744 q 338 664 356 699 q 312 588 319 629 q 304 511 304 547 z "},"p":{"ha":733,"x_min":53,"x_max":688,"o":"m 353 240 q 363 183 354 224 q 382 99 372 142 q 399 22 392 56 q 407 -14 407 -12 q 383 -60 407 -40 q 325 -92 358 -79 q 258 -110 292 -104 q 203 -115 224 -115 q 138 -75 164 -115 q 94 28 111 -35 q 69 167 78 90 q 57 315 61 243 q 53 444 53 386 q 53 528 53 501 q 53 644 53 586 q 70 750 54 703 q 125 826 86 797 q 242 856 164 856 q 293 851 276 856 q 317 835 310 846 q 324 806 324 825 q 324 761 324 788 l 332 761 q 345 769 333 761 q 378 788 357 778 q 426 806 399 797 q 485 814 453 814 q 568 794 531 814 q 632 740 606 774 q 673 665 658 707 q 688 581 688 624 q 658 452 688 507 q 581 357 628 397 q 473 288 533 317 q 353 240 413 260 m 343 364 q 404 410 375 382 q 455 473 433 439 q 489 545 476 507 q 501 622 501 583 q 499 653 501 635 q 489 688 496 671 q 471 718 482 706 q 444 731 460 731 q 397 708 419 731 q 358 656 375 686 q 332 592 342 625 q 322 538 322 558 q 327 450 322 496 q 343 364 332 404 z "},"o":{"ha":864,"x_min":46,"x_max":813,"o":"m 46 388 q 79 556 46 472 q 171 707 113 640 q 307 815 229 774 q 474 857 385 857 q 615 831 553 857 q 722 757 678 804 q 789 644 765 710 q 813 503 813 579 q 778 310 813 403 q 681 147 743 218 q 531 34 618 76 q 340 -8 444 -8 q 206 28 263 -8 q 115 122 150 65 q 63 250 79 179 q 46 388 46 321 m 589 469 q 581 550 589 499 q 555 651 572 601 q 509 738 538 701 q 442 774 481 774 q 375 739 400 774 q 337 656 350 704 q 319 560 324 608 q 315 482 315 511 q 317 424 315 460 q 326 347 319 388 q 343 263 332 306 q 370 187 354 221 q 409 131 386 153 q 463 110 432 110 q 526 138 501 110 q 565 205 551 165 q 584 288 579 244 q 589 361 589 331 l 589 469 z "},"n":{"ha":711,"x_min":57,"x_max":660,"o":"m 282 574 q 325 645 304 604 q 371 723 346 686 q 429 785 396 760 q 511 810 463 810 q 578 795 550 810 q 625 756 607 781 q 651 699 643 732 q 660 631 660 667 q 653 345 660 488 q 629 63 646 203 q 597 15 625 25 q 536 6 568 6 q 501 11 517 6 q 486 42 486 17 q 494 114 486 57 q 511 248 501 171 q 530 411 521 325 q 542 569 539 497 q 538 688 544 640 q 508 735 531 735 q 465 708 488 735 q 419 638 442 681 q 376 542 396 594 q 340 442 356 490 q 315 353 324 393 q 306 293 306 313 q 312 180 306 236 q 318 65 318 124 q 303 24 318 40 q 266 -2 288 8 q 219 -17 244 -12 q 175 -21 194 -21 q 118 -14 150 -21 q 72 38 78 -6 q 59 229 61 132 q 57 422 57 326 q 65 640 57 529 q 100 854 72 750 q 113 886 106 875 q 132 903 121 897 q 158 910 143 908 q 192 911 172 911 q 227 908 207 911 q 265 896 247 904 q 294 874 282 888 q 307 842 307 861 q 294 726 307 786 q 281 606 281 667 l 282 574 z "},"m":{"ha":1090,"x_min":53,"x_max":1032,"o":"m 339 896 q 397 922 374 910 q 461 933 421 933 q 538 919 511 933 q 578 882 564 906 q 597 825 592 858 q 610 753 603 792 q 649 818 626 783 q 701 882 672 853 q 763 931 729 911 q 836 950 797 950 q 928 919 892 950 q 985 840 964 889 q 1017 731 1007 792 q 1029 610 1026 671 q 1031 493 1032 549 q 1029 400 1029 438 q 1030 351 1029 382 q 1030 285 1031 321 q 1027 210 1029 249 q 1020 139 1025 172 q 1006 81 1015 106 q 983 46 997 56 q 915 13 951 25 q 842 1 879 1 q 810 3 826 1 q 778 10 793 4 q 754 28 764 17 q 744 60 744 40 q 756 199 744 126 q 782 346 768 271 q 808 497 796 421 q 819 643 819 572 q 820 688 819 656 q 818 753 821 719 q 807 814 815 788 q 782 840 799 840 q 725 788 751 832 q 678 687 699 743 q 642 576 657 631 q 619 493 628 521 q 610 418 608 457 q 611 342 611 379 q 593 290 611 303 q 539 278 575 278 q 497 284 513 278 q 476 319 482 290 q 463 430 467 374 q 459 544 460 486 q 458 659 458 601 q 457 771 458 717 q 457 787 457 776 q 455 807 457 797 q 448 824 453 817 q 433 831 443 831 q 426 829 431 831 q 419 826 422 828 q 374 742 390 801 q 349 615 357 683 q 338 480 340 546 q 336 376 336 414 q 348 234 336 304 q 360 93 360 164 q 340 48 360 67 q 291 17 319 29 q 232 -2 263 4 q 181 -8 201 -8 q 124 -3 150 -8 q 88 18 96 4 q 76 58 79 32 q 60 273 67 167 q 53 488 53 379 q 86 924 53 707 q 102 958 89 944 q 133 978 115 971 q 172 988 151 985 q 210 990 193 990 q 254 988 232 990 q 294 976 276 985 q 324 950 313 967 q 335 907 335 933 l 339 896 z "},"l":{"ha":414,"x_min":54,"x_max":378,"o":"m 54 449 q 65 670 54 561 q 99 889 75 779 q 118 928 104 913 q 151 951 132 943 q 192 963 169 960 q 235 965 214 965 q 271 963 250 965 q 311 954 292 961 q 344 935 331 947 q 358 903 358 924 q 344 700 358 801 q 331 496 331 599 q 335 335 331 415 q 350 176 339 256 q 367 119 356 150 q 378 65 378 89 q 357 31 378 44 q 308 7 336 17 q 251 -7 279 -3 q 208 -11 222 -11 q 145 0 172 -11 q 106 49 118 11 q 81 142 90 92 q 65 246 71 193 q 57 351 60 299 q 54 449 54 403 z "},"k":{"ha":672,"x_min":53,"x_max":635,"o":"m 283 472 q 313 503 294 482 q 353 550 331 525 q 401 602 376 575 q 447 651 425 629 q 488 688 469 674 q 517 701 506 701 q 544 696 529 701 q 572 681 560 690 q 593 659 585 672 q 601 632 601 646 q 584 586 601 613 q 544 533 567 560 q 497 483 521 507 q 458 446 472 460 q 485 362 468 407 q 525 273 503 317 q 572 188 547 229 q 622 117 597 147 q 635 88 635 101 q 623 64 635 75 q 595 45 611 53 q 562 33 579 38 q 535 29 544 29 q 492 48 514 29 q 451 95 471 67 q 412 160 431 124 q 377 231 393 196 q 348 295 361 265 q 328 342 335 325 l 322 347 l 290 338 q 298 208 294 272 q 317 81 301 144 q 319 73 318 76 q 319 64 319 69 q 303 33 319 46 q 264 10 286 19 q 217 -3 242 1 q 179 -8 193 -8 q 155 -7 167 -8 q 132 -3 143 -6 q 99 32 113 1 q 76 107 85 63 q 63 204 68 151 q 56 306 58 257 q 53 394 54 356 q 53 451 53 433 q 60 683 53 568 q 78 915 67 799 q 115 981 83 965 q 192 996 146 996 q 246 988 221 996 q 279 968 272 979 q 286 929 286 957 q 284 772 285 850 q 283 615 283 694 l 283 472 z "},"j":{"ha":399,"x_min":-81,"x_max":344,"o":"m 344 17 q 341 -82 344 -33 q 325 -176 338 -131 q 289 -261 313 -221 q 225 -335 265 -301 q 116 -406 171 -379 q -12 -432 61 -432 q -40 -431 -28 -432 q -61 -426 -51 -431 q -76 -412 -71 -422 q -81 -385 -81 -403 q -76 -361 -81 -369 q -66 -347 -72 -353 q -53 -335 -60 -340 q -39 -321 -46 -331 q 31 -241 7 -287 q 65 -140 56 -194 q 83 17 79 -64 q 85 181 86 99 q 80 344 83 263 q 76 503 76 425 q 111 576 76 557 q 196 594 146 594 q 238 591 217 594 q 276 578 258 588 q 310 532 306 567 q 335 274 325 406 q 344 17 344 143 m 282 801 q 269 758 282 774 q 238 736 257 743 q 196 728 219 729 q 151 726 172 726 q 97 733 115 726 q 68 754 78 740 q 57 790 58 768 q 56 842 56 811 q 67 901 56 881 q 97 931 78 922 q 145 941 117 940 q 207 942 174 942 q 267 922 253 942 q 282 857 282 901 l 282 801 z "},"i":{"ha":379,"x_min":50,"x_max":350,"o":"m 50 342 q 55 441 50 390 q 63 540 60 492 q 78 583 64 567 q 112 608 92 599 q 156 619 132 617 q 200 622 179 622 q 238 620 219 622 q 272 613 256 618 q 303 594 296 606 q 310 560 310 583 l 310 332 q 318 196 310 264 q 326 61 326 128 q 310 27 326 42 q 272 3 294 13 q 224 -10 249 -6 q 185 -14 200 -14 q 127 -4 153 -14 q 88 38 101 6 q 68 103 75 64 q 57 186 61 143 q 51 270 53 229 q 50 342 50 311 m 289 979 q 333 961 315 975 q 350 911 350 947 q 310 789 350 824 q 186 754 271 754 q 132 758 157 754 q 90 772 107 761 q 63 804 72 783 q 53 858 53 825 q 67 942 53 917 q 110 975 82 967 q 200 986 150 986 q 289 979 250 986 z "},"h":{"ha":718,"x_min":56,"x_max":664,"o":"m 331 563 q 403 584 367 572 q 476 596 439 596 q 562 569 528 596 q 616 498 596 542 q 647 399 636 454 q 660 289 657 344 q 663 183 664 233 q 663 97 663 132 q 654 67 663 79 q 632 48 646 56 q 602 38 618 40 q 571 35 586 35 q 538 40 554 35 q 518 64 522 44 q 512 119 514 81 q 508 205 510 157 q 501 304 506 253 q 488 398 496 356 q 465 467 479 440 q 429 494 451 494 q 392 470 406 494 q 371 408 378 446 q 362 325 364 371 q 360 237 360 279 q 363 159 361 194 q 365 108 365 124 q 345 57 365 78 q 297 24 325 36 q 236 6 268 11 q 181 0 204 0 q 115 12 140 0 q 83 67 90 24 q 61 298 67 181 q 56 531 56 415 q 63 735 56 635 q 83 938 69 835 q 101 978 88 963 q 135 1003 115 994 q 178 1015 156 1011 q 222 1018 201 1018 q 261 1016 242 1018 q 297 1007 281 1014 q 322 986 313 1000 q 332 949 332 972 q 327 816 332 882 q 322 683 322 750 q 324 623 322 654 q 331 563 326 592 z "},"g":{"ha":803,"x_min":46,"x_max":747,"o":"m 465 744 q 519 767 492 758 q 576 776 546 776 q 661 764 617 776 q 700 719 694 754 q 734 467 721 592 q 747 211 747 342 q 724 -22 747 65 q 645 -157 700 -110 q 498 -219 590 -204 q 268 -233 406 -233 q 222 -228 247 -233 q 176 -212 197 -224 q 140 -183 154 -201 q 126 -139 126 -165 q 147 -83 126 -100 q 196 -62 167 -67 q 257 -61 225 -58 q 314 -64 289 -64 q 367 -43 344 -64 q 406 10 390 -22 q 430 85 421 43 q 444 167 439 126 q 451 242 450 207 q 453 300 453 278 l 451 322 q 406 276 428 297 q 360 240 385 256 q 307 215 336 224 q 240 207 278 207 q 142 231 179 207 q 83 292 104 254 q 53 380 61 331 q 46 479 46 429 q 53 600 46 543 q 83 700 60 657 q 152 768 107 743 q 274 793 197 793 q 373 782 325 793 q 465 744 421 771 m 194 538 q 199 472 194 514 q 215 390 203 431 q 247 318 226 349 q 301 288 268 288 q 362 330 335 288 q 408 429 389 372 q 436 542 426 486 q 446 625 446 597 q 425 667 446 647 q 375 703 404 688 q 315 727 346 718 q 267 736 285 736 q 229 712 243 736 q 208 655 215 688 q 197 589 200 622 q 194 538 194 556 z "},"f":{"ha":619,"x_min":29,"x_max":593,"o":"m 411 567 q 447 569 418 567 q 509 569 476 571 q 567 558 542 567 q 593 529 593 550 q 576 494 593 503 q 535 486 558 486 q 470 487 499 486 q 411 476 442 488 q 409 460 410 468 q 408 444 408 451 q 410 296 408 369 q 418 147 413 222 q 432 42 421 96 q 443 -62 443 -12 q 425 -100 443 -85 q 382 -125 407 -115 q 331 -140 357 -135 q 288 -144 304 -144 q 252 -142 269 -144 q 220 -134 235 -140 q 195 -115 206 -128 q 182 -81 185 -101 q 166 160 168 42 q 164 400 164 278 q 159 428 164 418 q 148 442 154 438 q 134 449 142 447 q 121 450 126 450 q 95 451 111 450 q 65 456 79 451 q 40 467 50 460 q 29 489 29 475 q 45 525 29 514 q 84 540 61 536 q 131 544 107 544 q 171 544 156 544 q 195 688 183 624 q 236 799 207 753 q 319 870 265 844 q 469 896 374 896 q 501 894 482 896 q 537 888 519 893 q 567 874 554 883 q 581 847 581 864 q 568 822 581 831 q 540 813 556 813 q 508 817 525 813 q 476 821 492 821 q 438 796 451 821 q 417 737 424 771 q 410 667 411 703 q 408 613 408 632 q 409 590 408 601 q 411 567 410 578 z "},"e":{"ha":713,"x_min":46,"x_max":668,"o":"m 342 319 q 351 256 343 296 q 373 179 358 217 q 410 115 388 142 q 463 88 432 88 q 511 104 494 88 q 535 147 528 121 q 546 201 543 172 q 555 256 549 231 q 574 299 561 282 q 615 315 588 315 q 641 306 631 315 q 658 284 651 297 q 666 255 664 271 q 668 226 668 239 q 647 118 668 165 q 588 39 625 71 q 499 -10 550 7 q 389 -26 449 -26 q 218 8 285 -26 q 113 103 151 43 q 60 244 75 164 q 46 414 46 324 q 57 593 46 500 q 103 764 68 686 q 202 892 138 842 q 375 943 267 943 q 483 912 435 943 q 564 833 531 881 q 615 727 597 785 q 633 615 633 669 q 607 499 633 544 q 539 421 581 453 q 445 366 497 389 q 342 319 393 343 m 329 413 q 409 429 372 414 q 472 471 446 444 q 512 533 497 497 q 526 613 526 569 q 521 680 526 640 q 502 756 515 719 q 465 819 489 793 q 404 846 442 846 q 353 814 372 846 q 324 739 335 782 q 311 652 314 696 q 308 585 308 608 q 309 497 308 542 q 329 413 310 453 z "},"d":{"ha":763,"x_min":42,"x_max":733,"o":"m 438 697 q 448 833 442 764 q 461 969 454 901 q 478 1011 464 994 q 512 1038 492 1028 q 556 1053 532 1049 q 601 1057 579 1057 q 635 1055 618 1057 q 665 1047 651 1053 q 687 1028 678 1040 q 696 994 696 1015 q 691 847 696 921 q 686 699 686 774 q 690 526 686 611 q 701 354 694 442 q 720 237 707 297 q 733 121 733 176 q 715 74 733 93 q 669 44 696 56 q 613 26 642 32 q 561 21 583 21 q 517 28 532 21 q 479 54 503 35 q 379 17 431 35 q 274 -1 328 -1 q 166 41 210 -1 q 94 144 122 83 q 54 272 67 204 q 42 390 42 340 q 56 517 42 457 q 101 624 69 578 q 185 696 133 669 q 314 722 238 722 q 368 717 342 722 q 418 697 394 711 l 428 696 l 438 697 m 447 492 q 412 610 447 572 q 334 642 376 647 q 256 591 292 638 q 221 460 221 544 q 226 410 221 443 q 239 337 231 376 q 260 256 247 297 q 288 181 272 215 q 324 126 304 147 q 365 104 343 104 q 400 111 382 104 q 433 129 418 118 q 456 156 447 140 q 465 190 465 172 q 456 341 465 265 q 447 492 447 417 z "},"c":{"ha":681,"x_min":33,"x_max":644,"o":"m 274 519 q 276 458 274 497 q 286 375 279 419 q 305 284 293 331 q 335 200 317 238 q 376 139 353 163 q 432 115 400 115 q 475 131 460 115 q 500 169 490 146 q 517 218 510 192 q 533 267 524 244 q 559 306 543 290 q 604 321 575 321 q 638 305 632 321 q 644 264 644 289 q 612 119 644 172 q 529 40 579 67 q 419 7 479 14 q 306 0 360 0 q 172 46 225 0 q 88 165 119 92 q 45 326 57 238 q 38 502 33 415 q 58 663 42 589 q 99 778 74 736 q 224 889 143 854 q 429 924 304 924 q 510 907 474 924 q 571 862 546 890 q 609 795 596 833 q 622 714 622 757 q 616 692 622 700 q 600 681 610 685 q 578 675 590 676 q 557 674 567 674 q 524 703 533 674 q 505 769 515 733 q 474 835 494 806 q 406 865 453 865 q 353 846 375 865 q 317 796 332 826 q 294 726 303 765 q 281 649 285 688 q 275 576 276 611 q 274 519 274 542 z "},"b":{"ha":776,"x_min":40,"x_max":731,"o":"m 311 585 q 352 665 333 624 q 396 741 371 707 q 457 797 421 775 q 550 818 493 818 q 649 787 613 818 q 703 709 685 756 q 726 607 721 663 q 731 504 731 551 q 706 285 731 368 q 642 157 681 203 q 556 92 603 111 q 466 64 510 72 q 388 49 422 56 q 340 21 354 43 q 273 -12 308 0 q 199 -25 238 -25 q 141 -17 167 -25 q 104 22 115 -10 q 75 124 88 69 q 55 234 63 178 q 44 346 47 290 q 40 451 40 401 q 41 563 40 503 q 44 685 42 624 q 50 808 46 747 q 63 918 54 868 q 117 1003 72 981 q 218 1025 161 1025 q 247 1024 231 1025 q 276 1019 263 1024 q 300 1004 290 1014 q 310 976 310 994 q 309 884 310 935 q 307 781 308 833 q 305 678 306 729 q 303 585 304 626 l 311 585 m 407 147 q 463 169 439 147 q 506 227 488 192 q 536 306 524 263 q 556 393 549 350 q 566 474 563 436 q 569 533 569 511 q 567 582 569 547 q 559 653 565 617 q 541 717 553 689 q 511 744 529 744 q 463 708 485 744 q 421 617 440 672 q 386 497 401 563 q 360 370 371 431 q 343 263 349 310 q 338 199 338 215 q 358 155 338 163 q 407 147 378 147 z "},"©":{"ha":953,"x_min":50,"x_max":889,"o":"m 889 422 q 857 257 889 332 q 769 128 825 182 q 637 45 714 75 q 471 15 560 15 q 305 38 382 15 q 172 108 228 61 q 83 225 115 154 q 50 392 50 296 q 83 583 50 494 q 178 738 117 672 q 326 842 240 804 q 518 879 413 879 q 695 843 624 879 q 810 745 767 807 q 871 600 853 683 q 889 422 889 517 m 813 479 q 794 586 813 533 q 742 681 776 639 q 660 748 708 722 q 551 774 611 774 q 442 739 486 774 q 370 651 397 704 q 332 535 343 597 q 321 419 321 474 q 331 313 321 367 q 367 214 342 258 q 434 141 392 169 q 540 113 476 113 q 665 147 613 113 q 749 235 717 182 q 797 353 782 289 q 813 479 813 418 m 689 311 q 625 275 660 288 q 551 263 590 263 q 480 273 507 263 q 438 304 453 283 q 417 355 422 325 q 411 425 411 385 q 428 501 411 467 q 472 559 444 535 q 535 597 499 583 q 610 611 571 611 q 624 610 615 611 q 642 605 633 608 q 656 596 650 601 q 661 582 661 590 q 651 563 661 567 q 628 557 642 558 q 601 554 615 556 q 579 543 588 553 q 551 501 557 519 q 544 450 544 482 q 547 413 544 433 q 556 376 549 393 q 576 347 563 358 q 613 335 589 335 q 647 341 631 335 q 678 347 663 347 q 697 344 692 347 q 703 335 703 340 q 698 324 703 331 q 689 311 693 317 z "},"®":{"ha":736,"x_min":47,"x_max":681,"o":"m 350 410 q 228 428 283 410 q 132 481 172 446 q 69 569 92 517 q 47 692 47 622 q 76 830 47 767 q 153 939 104 893 q 267 1010 201 985 q 407 1036 333 1036 q 517 1007 467 1036 q 604 932 568 978 q 660 828 640 886 q 681 715 681 771 q 652 596 681 651 q 577 499 624 540 q 472 433 531 457 q 350 410 413 410 m 581 731 q 567 808 581 767 q 531 883 554 849 q 474 941 507 918 q 399 964 440 964 q 326 937 357 964 q 276 871 296 910 q 245 788 256 832 q 235 711 235 744 q 244 632 235 672 q 273 558 253 592 q 326 504 293 525 q 404 483 358 483 q 481 508 447 483 q 536 570 514 533 q 569 650 558 607 q 581 731 581 693 m 456 728 q 470 715 463 719 q 486 706 478 710 q 506 687 504 697 q 502 668 508 676 q 484 654 496 660 q 461 649 472 649 q 416 662 442 649 q 374 685 390 675 q 378 658 376 671 q 379 631 379 644 q 365 602 379 614 q 336 590 351 590 q 318 598 324 590 q 311 617 313 606 q 310 640 310 628 q 311 660 311 651 q 306 715 311 688 q 301 771 301 743 q 315 809 301 793 q 349 835 329 825 q 392 851 369 846 q 433 856 415 856 q 483 841 463 856 q 503 796 503 826 q 487 758 503 776 q 456 728 471 739 m 367 742 q 389 758 379 747 q 403 781 399 769 q 406 800 407 792 q 399 808 406 808 q 374 792 383 808 q 364 763 364 775 q 367 742 364 756 z "},"¶":{"ha":868,"x_min":47,"x_max":833,"o":"m 603 814 l 513 814 q 499 734 503 788 q 492 612 494 681 q 491 466 490 543 q 493 316 492 389 q 496 181 494 243 q 497 81 497 119 q 485 23 497 43 q 453 -6 474 3 q 406 -16 433 -15 q 349 -17 379 -17 q 295 3 321 -17 q 269 51 269 22 q 272 267 269 160 q 274 482 274 374 q 196 503 236 492 q 123 533 156 514 q 69 583 90 553 q 47 663 47 614 q 78 770 47 721 q 158 855 110 819 q 263 910 206 890 q 375 929 321 929 q 419 925 397 929 q 464 921 442 921 q 604 922 535 921 q 744 924 674 924 q 776 924 760 924 q 804 920 792 924 q 825 906 817 917 q 833 875 833 896 q 830 805 833 840 q 822 735 826 769 q 809 613 814 667 q 801 507 804 558 q 797 401 797 456 q 796 278 796 346 q 797 156 796 219 q 788 33 799 92 q 773 0 783 10 q 739 -11 763 -10 l 688 -12 q 624 -6 646 -12 q 592 18 601 1 q 582 62 583 35 q 581 128 581 89 q 582 209 581 175 q 584 274 583 243 q 586 338 585 304 q 588 419 588 371 q 595 602 588 511 q 603 785 603 693 l 603 814 z "},"µ":{"ha":754,"x_min":74,"x_max":685,"o":"m 460 278 q 422 248 440 261 q 383 226 403 235 q 340 212 363 217 q 292 210 318 207 q 286 148 286 179 q 288 86 286 117 q 290 24 289 56 q 286 -37 290 -7 q 276 -72 283 -60 q 256 -91 268 -85 q 227 -99 243 -97 q 192 -101 211 -101 q 154 -101 175 -101 q 115 -95 133 -100 q 85 -79 97 -90 q 74 -46 74 -68 q 82 350 74 153 q 90 749 90 547 q 103 790 90 774 q 134 817 115 807 q 176 831 153 826 q 219 835 199 835 q 274 822 257 835 q 299 788 292 808 q 305 740 306 767 q 304 685 304 713 q 302 522 304 601 q 300 360 300 443 q 310 316 300 336 q 349 296 319 296 q 406 322 382 296 q 447 391 431 349 q 472 485 463 433 q 486 586 481 536 q 494 678 492 636 q 499 743 496 719 q 511 776 500 763 q 538 797 522 789 q 572 808 554 804 q 607 811 590 811 q 663 801 643 811 q 683 751 683 790 q 684 683 683 731 q 685 574 685 635 q 683 447 685 514 q 680 322 682 381 q 674 220 678 264 q 663 163 669 176 q 642 138 656 147 q 611 124 628 129 q 576 118 594 119 q 544 117 558 117 q 478 129 499 117 q 453 163 458 142 q 453 214 449 185 q 460 278 457 243 z "},":":{"ha":289,"x_min":50,"x_max":244,"o":"m 50 590 q 81 667 50 638 q 163 696 113 696 q 228 663 211 696 q 244 589 244 631 q 233 549 244 565 q 204 524 222 533 q 165 512 186 515 q 122 508 143 508 q 66 531 82 508 q 50 590 50 554 m 50 125 q 81 201 50 172 q 163 231 113 231 q 228 198 211 231 q 244 124 244 165 q 233 84 244 100 q 204 59 222 68 q 165 47 186 50 q 122 43 143 43 q 66 66 82 43 q 50 125 50 89 z "},"™":{"ha":718,"x_min":60,"x_max":656,"o":"m 142 989 q 121 988 131 988 q 101 988 111 988 q 74 989 88 988 q 60 1004 60 990 q 78 1017 60 1014 q 167 1022 122 1019 q 256 1024 211 1024 q 273 1024 263 1024 q 292 1024 283 1025 q 308 1019 301 1022 q 315 1008 315 1017 q 305 996 315 1000 q 281 991 294 992 q 253 991 267 990 q 231 992 239 992 q 228 972 228 981 q 228 919 228 947 q 231 860 229 890 q 233 800 232 829 q 233 746 233 771 q 227 736 233 740 q 213 730 221 732 q 195 726 204 728 q 181 725 186 725 q 167 726 174 725 q 154 728 161 726 q 142 739 146 729 q 138 760 139 749 q 138 783 138 772 q 138 800 138 794 q 138 842 138 818 q 140 889 139 865 q 141 935 140 913 q 142 976 142 958 l 142 989 m 518 882 q 555 939 536 910 q 590 997 574 968 q 626 1014 601 1014 q 651 996 650 1014 q 656 897 656 947 q 656 797 656 846 q 646 749 656 767 q 592 731 636 731 q 575 732 582 731 q 568 743 568 733 q 576 831 568 788 q 585 918 585 875 l 583 928 q 566 905 574 919 q 549 876 558 890 q 529 853 540 863 q 501 843 518 843 q 468 861 482 843 q 444 892 454 879 q 440 886 440 890 q 443 833 440 858 q 450 782 446 808 q 453 767 451 775 q 456 753 456 760 q 437 730 456 736 q 401 724 418 724 q 374 748 385 724 q 356 803 363 772 q 348 864 350 835 q 346 904 346 893 q 347 949 346 926 q 353 993 349 971 q 378 1017 357 1010 q 418 1024 399 1024 q 441 1021 432 1024 q 456 1006 450 1018 q 486 943 471 974 q 518 882 501 913 z "},"”":{"ha":557,"x_min":103,"x_max":451,"o":"m 114 799 q 106 846 110 822 q 103 894 103 869 q 118 953 103 932 q 174 975 133 975 q 226 963 199 975 q 253 919 253 950 q 248 852 253 894 q 231 769 243 810 q 195 700 218 729 q 135 671 172 671 q 109 683 115 671 q 103 711 103 696 q 107 755 103 733 q 114 799 111 776 m 313 799 q 305 846 308 822 q 301 894 301 869 q 317 953 301 932 q 372 975 332 975 q 424 963 397 975 q 451 919 451 950 q 447 852 451 894 q 429 769 442 810 q 394 700 417 729 q 333 671 371 671 q 308 683 314 671 q 301 711 301 696 q 306 755 301 733 q 313 799 310 776 z "},"“":{"ha":557,"x_min":103,"x_max":451,"o":"m 440 847 q 448 800 444 824 q 451 751 451 776 q 436 692 451 714 q 381 671 421 671 q 328 683 356 671 q 301 726 301 696 q 306 794 301 751 q 324 876 311 836 q 359 946 336 917 q 419 975 382 975 q 445 963 439 975 q 451 935 451 950 q 447 891 451 913 q 440 847 443 869 m 242 847 q 249 800 246 824 q 253 751 253 776 q 238 692 253 714 q 182 671 222 671 q 130 683 157 671 q 103 726 103 696 q 108 794 103 751 q 125 876 113 836 q 160 946 138 917 q 221 975 183 975 q 247 963 240 975 q 253 935 253 950 q 249 891 253 913 q 242 847 244 869 z "},"’":{"ha":343,"x_min":103,"x_max":253,"o":"m 114 799 q 106 846 110 822 q 103 894 103 869 q 118 953 103 932 q 174 975 133 975 q 226 963 199 975 q 253 919 253 950 q 248 852 253 894 q 231 769 243 810 q 195 700 218 729 q 135 671 172 671 q 109 683 115 671 q 103 711 103 696 q 107 755 103 733 q 114 799 111 776 z "},"‘":{"ha":343,"x_min":103,"x_max":253,"o":"m 242 847 q 249 800 246 824 q 253 751 253 776 q 238 692 253 714 q 182 671 222 671 q 130 683 157 671 q 103 726 103 696 q 108 794 103 751 q 125 876 113 836 q 160 946 138 917 q 221 975 183 975 q 247 963 240 975 q 253 935 253 950 q 249 891 253 913 q 242 847 244 869 z "},"£":{"ha":643,"x_min":42,"x_max":608,"o":"m 382 364 q 357 238 372 289 q 322 149 342 186 q 412 131 361 138 q 503 124 463 124 q 520 128 513 124 q 536 140 528 133 q 553 151 544 146 q 574 157 563 157 q 597 149 585 157 q 608 128 608 142 q 592 86 608 104 q 553 56 576 68 q 505 38 531 44 q 460 32 479 32 q 355 41 407 32 q 251 50 303 50 q 213 44 231 50 q 176 31 194 39 q 140 18 158 24 q 103 13 122 13 q 63 22 85 13 q 42 53 42 31 q 60 93 42 65 q 102 158 79 121 q 144 240 125 196 q 163 331 163 285 l 163 357 q 129 363 146 364 q 97 361 113 361 q 53 367 65 361 q 44 382 42 374 q 58 398 46 390 q 89 410 71 406 q 128 415 108 413 q 169 419 149 418 q 180 515 178 460 q 185 628 182 569 q 197 742 188 686 q 228 844 206 799 q 290 916 250 889 q 396 943 331 943 q 458 927 431 943 q 506 885 486 911 q 535 827 525 860 q 546 763 546 794 q 534 711 546 731 q 486 692 522 692 q 463 720 471 692 q 443 781 454 749 q 412 828 424 835 q 400 743 400 822 q 401 584 403 660 q 383 429 399 508 q 425 427 407 426 q 463 428 443 428 q 497 422 486 428 q 510 406 508 415 q 504 388 511 397 q 483 372 497 378 q 435 365 465 365 q 382 364 406 365 z "},"@":{"ha":935,"x_min":42,"x_max":888,"o":"m 629 360 q 556 315 596 333 q 472 297 515 297 q 401 316 433 297 q 344 367 368 335 q 431 211 365 271 q 590 151 496 151 q 644 158 617 151 q 697 174 671 165 q 748 190 722 183 q 799 197 774 197 q 840 182 822 197 q 857 139 857 167 q 836 95 857 114 q 783 62 815 76 q 710 38 750 47 q 631 23 669 29 q 559 15 592 17 q 508 13 526 13 q 323 35 408 13 q 175 110 238 58 q 77 242 113 161 q 42 440 42 324 q 74 638 42 549 q 167 792 107 728 q 312 893 228 857 q 499 929 396 929 q 634 910 565 929 q 759 851 703 890 q 851 753 815 813 q 888 614 888 694 q 878 522 888 569 q 846 434 868 474 q 789 369 824 394 q 704 343 754 343 q 667 348 685 343 q 629 360 649 353 m 322 519 q 365 602 342 567 q 417 661 388 638 q 486 697 447 685 q 578 710 525 710 q 651 692 625 710 q 691 647 678 674 q 708 588 704 619 q 713 528 711 556 q 720 483 715 501 q 742 465 725 465 q 765 478 756 465 q 778 507 774 490 q 785 541 783 524 q 786 569 786 558 q 764 683 786 631 q 704 773 742 735 q 617 833 667 811 q 510 854 567 854 q 427 827 463 854 q 367 759 392 800 q 331 669 343 718 q 319 578 319 621 q 320 549 319 563 q 322 519 321 535 m 465 514 q 466 481 465 499 q 472 447 467 463 q 487 419 476 431 q 515 408 497 408 q 551 424 535 408 q 578 460 567 439 q 594 506 589 482 q 600 546 600 529 q 582 598 600 576 q 535 619 564 619 q 506 608 518 619 q 484 581 493 597 q 470 546 475 564 q 465 514 465 528 z "},"^":{"ha":543,"x_min":71,"x_max":467,"o":"m 226 792 q 219 731 222 768 q 209 659 217 694 q 185 599 201 624 q 139 574 169 574 q 119 576 131 574 q 97 585 107 579 q 78 598 86 590 q 71 615 71 606 q 77 658 71 626 q 93 733 83 690 q 115 823 103 775 q 141 912 128 871 q 166 982 154 953 q 186 1018 178 1011 q 271 1043 224 1043 q 319 1032 299 1043 q 350 993 340 1021 q 369 919 360 957 q 389 844 378 882 q 415 772 400 807 q 453 706 429 736 q 463 690 458 699 q 467 672 467 682 q 456 644 467 657 q 430 623 446 632 q 397 609 414 614 q 367 604 379 604 q 319 626 342 604 q 279 678 297 649 q 248 740 261 708 q 226 792 235 772 z "}}}
